<svg width="935" height="250" viewBox="0 0 935 250" fill="none" xmlns="http://www.w3.org/2000/svg">
<rect width="935" height="250" rx="12" fill="#F99001"/>
<path d="M228.275 86.765C226.505 86.765 224.84 86.51 223.28 86C221.75 85.46 220.37 84.665 219.14 83.615C217.94 82.535 216.92 81.155 216.08 79.475L221.21 76.28C222.08 77.72 223.145 78.815 224.405 79.565C225.665 80.315 227.075 80.69 228.635 80.69C229.985 80.69 231.005 80.405 231.695 79.835C232.385 79.265 232.73 78.515 232.73 77.585C232.73 76.985 232.565 76.475 232.235 76.055C231.935 75.605 231.38 75.185 230.57 74.795C229.76 74.405 228.59 74.03 227.06 73.67C224.57 73.07 222.59 72.32 221.12 71.42C219.68 70.52 218.66 69.455 218.06 68.225C217.46 66.965 217.16 65.57 217.16 64.04C217.16 62.24 217.595 60.65 218.465 59.27C219.365 57.86 220.64 56.75 222.29 55.94C223.94 55.13 225.905 54.725 228.185 54.725C230.765 54.725 232.94 55.235 234.71 56.255C236.51 57.275 237.95 58.61 239.03 60.26L233.9 63.815C233.12 62.795 232.175 62.06 231.065 61.61C229.985 61.16 228.905 60.935 227.825 60.935C226.535 60.935 225.53 61.19 224.81 61.7C224.12 62.18 223.775 62.87 223.775 63.77C223.775 64.61 224.135 65.315 224.855 65.885C225.575 66.425 226.985 66.935 229.085 67.415C231.605 68.015 233.63 68.75 235.16 69.62C236.69 70.49 237.8 71.555 238.49 72.815C239.18 74.075 239.525 75.59 239.525 77.36C239.525 79.16 239.06 80.765 238.13 82.175C237.23 83.585 235.94 84.71 234.26 85.55C232.58 86.36 230.585 86.765 228.275 86.765ZM249.05 86.585C247.46 86.585 246.05 86.285 244.82 85.685C243.62 85.055 242.69 84.185 242.03 83.075C241.37 81.965 241.04 80.675 241.04 79.205C241.04 77.645 241.4 76.325 242.12 75.245C242.84 74.135 243.8 73.28 245 72.68C246.23 72.08 247.595 71.78 249.095 71.78C251.285 71.78 253.055 72.275 254.405 73.265C255.755 74.255 256.655 75.68 257.105 77.54L254.27 77.045V71.915C254.27 71.105 253.985 70.4 253.415 69.8C252.845 69.2 251.93 68.9 250.67 68.9C249.86 68.9 248.93 69.005 247.88 69.215C246.83 69.395 245.75 69.755 244.64 70.295L242.705 65.615C244.025 64.955 245.435 64.43 246.935 64.04C248.465 63.65 250.025 63.455 251.615 63.455C253.655 63.455 255.365 63.815 256.745 64.535C258.125 65.255 259.145 66.275 259.805 67.595C260.495 68.915 260.84 70.445 260.84 72.185V86H255.485L254.18 81.725L257.105 80.825C256.625 82.625 255.71 84.035 254.36 85.055C253.01 86.075 251.24 86.585 249.05 86.585ZM251.075 81.905C252.065 81.905 252.845 81.65 253.415 81.14C254.015 80.63 254.315 79.985 254.315 79.205C254.315 78.365 254.015 77.705 253.415 77.225C252.845 76.745 252.065 76.505 251.075 76.505C250.085 76.505 249.305 76.745 248.735 77.225C248.165 77.705 247.88 78.365 247.88 79.205C247.88 79.985 248.165 80.63 248.735 81.14C249.305 81.65 250.085 81.905 251.075 81.905ZM285.325 63.995L277.405 86H271.06L262.735 63.995H269.485L275.11 80.69H273.31L278.71 63.995H285.325ZM296.889 86.405C294.699 86.405 292.764 85.94 291.084 85.01C289.434 84.08 288.144 82.76 287.214 81.05C286.314 79.34 285.864 77.33 285.864 75.02C285.864 72.74 286.314 70.73 287.214 68.99C288.144 67.25 289.434 65.9 291.084 64.94C292.764 63.95 294.699 63.455 296.889 63.455C299.139 63.455 301.089 63.965 302.739 64.985C304.389 66.005 305.664 67.385 306.564 69.125C307.464 70.835 307.914 72.77 307.914 74.93C307.914 75.32 307.899 75.695 307.869 76.055C307.839 76.415 307.809 76.7 307.779 76.91H290.994V72.23H302.739L301.974 74.165C301.974 72.515 301.554 71.165 300.714 70.115C299.904 69.065 298.644 68.54 296.934 68.54C295.404 68.54 294.174 69.005 293.244 69.935C292.344 70.865 291.894 72.095 291.894 73.625V76.1C291.894 77.75 292.359 79.04 293.289 79.97C294.249 80.87 295.569 81.32 297.249 81.32C298.659 81.32 299.769 81.035 300.579 80.465C301.419 79.895 302.124 79.19 302.694 78.35L307.149 80.825C306.189 82.595 304.839 83.975 303.099 84.965C301.359 85.925 299.289 86.405 296.889 86.405ZM330.052 86V58.46H336.667V86H330.052ZM320.962 61.7V55.355H345.937V61.7H320.962ZM355.396 86H348.826V63.995H355.396V86ZM348.241 57.065C348.241 55.895 348.586 54.95 349.276 54.23C349.996 53.51 350.941 53.15 352.111 53.15C353.281 53.15 354.211 53.51 354.901 54.23C355.621 54.95 355.981 55.895 355.981 57.065C355.981 58.205 355.621 59.135 354.901 59.855C354.211 60.545 353.281 60.89 352.111 60.89C350.941 60.89 349.996 60.545 349.276 59.855C348.586 59.135 348.241 58.205 348.241 57.065ZM360.162 86V63.995H365.022L366.372 68.36L364.122 68.18C364.872 67.31 365.727 66.515 366.687 65.795C367.647 65.075 368.697 64.505 369.837 64.085C370.977 63.665 372.162 63.455 373.392 63.455C374.862 63.455 376.032 63.71 376.902 64.22C377.802 64.7 378.477 65.375 378.927 66.245C379.407 67.115 379.722 68.105 379.872 69.215C380.052 70.295 380.142 71.42 380.142 72.59V86H373.572V72.95C373.572 71.69 373.347 70.865 372.897 70.475C372.447 70.055 371.892 69.845 371.232 69.845C370.302 69.845 369.387 70.13 368.487 70.7C367.587 71.24 366.777 71.945 366.057 72.815L364.887 69.485H366.732V86H360.162ZM386.982 86V72.95C386.982 71.69 386.757 70.865 386.307 70.475C385.887 70.055 385.347 69.845 384.687 69.845C383.727 69.845 382.797 70.13 381.897 70.7C380.997 71.24 380.187 71.945 379.467 72.815L377.532 68.18C378.312 67.31 379.182 66.515 380.142 65.795C381.102 65.075 382.137 64.505 383.247 64.085C384.387 63.665 385.572 63.455 386.802 63.455C388.272 63.455 389.457 63.71 390.357 64.22C391.257 64.7 391.932 65.375 392.382 66.245C392.832 67.115 393.147 68.105 393.327 69.215C393.507 70.295 393.597 71.42 393.597 72.59V86H386.982ZM407.456 86.405C405.266 86.405 403.331 85.94 401.651 85.01C400.001 84.08 398.711 82.76 397.781 81.05C396.881 79.34 396.431 77.33 396.431 75.02C396.431 72.74 396.881 70.73 397.781 68.99C398.711 67.25 400.001 65.9 401.651 64.94C403.331 63.95 405.266 63.455 407.456 63.455C409.706 63.455 411.656 63.965 413.306 64.985C414.956 66.005 416.231 67.385 417.131 69.125C418.031 70.835 418.481 72.77 418.481 74.93C418.481 75.32 418.466 75.695 418.436 76.055C418.406 76.415 418.376 76.7 418.346 76.91H401.561V72.23H413.306L412.541 74.165C412.541 72.515 412.121 71.165 411.281 70.115C410.471 69.065 409.211 68.54 407.501 68.54C405.971 68.54 404.741 69.005 403.811 69.935C402.911 70.865 402.461 72.095 402.461 73.625V76.1C402.461 77.75 402.926 79.04 403.856 79.97C404.816 80.87 406.136 81.32 407.816 81.32C409.226 81.32 410.336 81.035 411.146 80.465C411.986 79.895 412.691 79.19 413.261 78.35L417.716 80.825C416.756 82.595 415.406 83.975 413.666 84.965C411.926 85.925 409.856 86.405 407.456 86.405ZM459.293 72.41H444.308C442.898 72.41 441.758 72.755 440.888 73.445C440.048 74.105 439.628 75.065 439.628 76.325C439.628 77.525 440.048 78.455 440.888 79.115C441.758 79.775 442.883 80.105 444.263 80.105C445.943 80.105 447.128 79.58 447.818 78.53C448.508 77.48 448.853 75.98 448.853 74.03V69.935H455.468V74.435C455.468 76.925 455.093 78.965 454.343 80.555C453.623 82.145 452.678 83.375 451.508 84.245C450.368 85.115 449.153 85.715 447.863 86.045C446.573 86.375 445.388 86.54 444.308 86.54C441.878 86.54 439.823 86.105 438.143 85.235C436.463 84.335 435.173 83.135 434.273 81.635C433.403 80.105 432.968 78.44 432.968 76.64C432.968 75.05 433.448 73.565 434.408 72.185C435.398 70.775 436.763 69.65 438.503 68.81C440.273 67.94 442.328 67.505 444.668 67.505L444.038 70.835C441.128 70.835 438.803 70.07 437.063 68.54C435.323 67.01 434.453 65 434.453 62.51C434.453 61.1 434.813 59.735 435.533 58.415C436.253 57.095 437.318 56 438.728 55.13C440.168 54.23 441.953 53.78 444.083 53.78C444.953 53.78 445.868 53.885 446.828 54.095C447.818 54.275 448.853 54.68 449.933 55.31C451.013 55.91 452.093 56.825 453.173 58.055L448.538 62.195C447.758 61.415 447.038 60.89 446.378 60.62C445.718 60.32 445.028 60.17 444.308 60.17C443.288 60.17 442.478 60.47 441.878 61.07C441.278 61.64 440.978 62.36 440.978 63.23C440.978 64.19 441.368 65 442.148 65.66C442.958 66.29 444.113 66.605 445.613 66.605H459.293V72.41ZM485.047 86.765C483.277 86.765 481.612 86.51 480.052 86C478.522 85.46 477.142 84.665 475.912 83.615C474.712 82.535 473.692 81.155 472.852 79.475L477.982 76.28C478.852 77.72 479.917 78.815 481.177 79.565C482.437 80.315 483.847 80.69 485.407 80.69C486.757 80.69 487.777 80.405 488.467 79.835C489.157 79.265 489.502 78.515 489.502 77.585C489.502 76.985 489.337 76.475 489.007 76.055C488.707 75.605 488.152 75.185 487.342 74.795C486.532 74.405 485.362 74.03 483.832 73.67C481.342 73.07 479.362 72.32 477.892 71.42C476.452 70.52 475.432 69.455 474.832 68.225C474.232 66.965 473.932 65.57 473.932 64.04C473.932 62.24 474.367 60.65 475.237 59.27C476.137 57.86 477.412 56.75 479.062 55.94C480.712 55.13 482.677 54.725 484.957 54.725C487.537 54.725 489.712 55.235 491.482 56.255C493.282 57.275 494.722 58.61 495.802 60.26L490.672 63.815C489.892 62.795 488.947 62.06 487.837 61.61C486.757 61.16 485.677 60.935 484.597 60.935C483.307 60.935 482.302 61.19 481.582 61.7C480.892 62.18 480.547 62.87 480.547 63.77C480.547 64.61 480.907 65.315 481.627 65.885C482.347 66.425 483.757 66.935 485.857 67.415C488.377 68.015 490.402 68.75 491.932 69.62C493.462 70.49 494.572 71.555 495.262 72.815C495.952 74.075 496.297 75.59 496.297 77.36C496.297 79.16 495.832 80.765 494.902 82.175C494.002 83.585 492.712 84.71 491.032 85.55C489.352 86.36 487.357 86.765 485.047 86.765ZM505.822 86.585C504.232 86.585 502.822 86.285 501.592 85.685C500.392 85.055 499.462 84.185 498.802 83.075C498.142 81.965 497.812 80.675 497.812 79.205C497.812 77.645 498.172 76.325 498.892 75.245C499.612 74.135 500.572 73.28 501.772 72.68C503.002 72.08 504.367 71.78 505.867 71.78C508.057 71.78 509.827 72.275 511.177 73.265C512.527 74.255 513.427 75.68 513.877 77.54L511.042 77.045V71.915C511.042 71.105 510.757 70.4 510.187 69.8C509.617 69.2 508.702 68.9 507.442 68.9C506.632 68.9 505.702 69.005 504.652 69.215C503.602 69.395 502.522 69.755 501.412 70.295L499.477 65.615C500.797 64.955 502.207 64.43 503.707 64.04C505.237 63.65 506.797 63.455 508.387 63.455C510.427 63.455 512.137 63.815 513.517 64.535C514.897 65.255 515.917 66.275 516.577 67.595C517.267 68.915 517.612 70.445 517.612 72.185V86H512.257L510.952 81.725L513.877 80.825C513.397 82.625 512.482 84.035 511.132 85.055C509.782 86.075 508.012 86.585 505.822 86.585ZM507.847 81.905C508.837 81.905 509.617 81.65 510.187 81.14C510.787 80.63 511.087 79.985 511.087 79.205C511.087 78.365 510.787 77.705 510.187 77.225C509.617 76.745 508.837 76.505 507.847 76.505C506.857 76.505 506.077 76.745 505.507 77.225C504.937 77.705 504.652 78.365 504.652 79.205C504.652 79.985 504.937 80.63 505.507 81.14C506.077 81.65 506.857 81.905 507.847 81.905ZM542.098 63.995L534.178 86H527.833L519.508 63.995H526.258L531.883 80.69H530.083L535.483 63.995H542.098ZM553.662 86.405C551.472 86.405 549.537 85.94 547.857 85.01C546.207 84.08 544.917 82.76 543.987 81.05C543.087 79.34 542.637 77.33 542.637 75.02C542.637 72.74 543.087 70.73 543.987 68.99C544.917 67.25 546.207 65.9 547.857 64.94C549.537 63.95 551.472 63.455 553.662 63.455C555.912 63.455 557.862 63.965 559.512 64.985C561.162 66.005 562.437 67.385 563.337 69.125C564.237 70.835 564.687 72.77 564.687 74.93C564.687 75.32 564.672 75.695 564.642 76.055C564.612 76.415 564.582 76.7 564.552 76.91H547.767V72.23H559.512L558.747 74.165C558.747 72.515 558.327 71.165 557.487 70.115C556.677 69.065 555.417 68.54 553.707 68.54C552.177 68.54 550.947 69.005 550.017 69.935C549.117 70.865 548.667 72.095 548.667 73.625V76.1C548.667 77.75 549.132 79.04 550.062 79.97C551.022 80.87 552.342 81.32 554.022 81.32C555.432 81.32 556.542 81.035 557.352 80.465C558.192 79.895 558.897 79.19 559.467 78.35L563.922 80.825C562.962 82.595 561.612 83.975 559.872 84.965C558.132 85.925 556.062 86.405 553.662 86.405ZM578.274 86L583.674 55.355H589.569L596.904 76.325H596.589L603.924 55.355H609.819L615.264 86H608.649L606.534 72.32C606.264 70.49 606.009 68.675 605.769 66.875C605.559 65.045 605.379 63.215 605.229 61.385H607.074C606.594 63.365 606.114 65.225 605.634 66.965C605.184 68.705 604.644 70.46 604.014 72.23L599.334 85.64H594.159L589.479 72.23C588.849 70.43 588.294 68.675 587.814 66.965C587.364 65.225 586.899 63.365 586.419 61.385H588.264C588.114 63.215 587.934 65.045 587.724 66.875C587.514 68.675 587.259 70.49 586.959 72.32L584.844 86H578.274ZM628.777 86.54C626.497 86.54 624.487 86.06 622.747 85.1C621.007 84.11 619.657 82.745 618.697 81.005C617.737 79.265 617.257 77.27 617.257 75.02C617.257 72.74 617.737 70.73 618.697 68.99C619.657 67.25 621.007 65.9 622.747 64.94C624.487 63.95 626.497 63.455 628.777 63.455C631.087 63.455 633.112 63.95 634.852 64.94C636.592 65.9 637.942 67.25 638.902 68.99C639.892 70.73 640.387 72.74 640.387 75.02C640.387 77.27 639.892 79.265 638.902 81.005C637.942 82.745 636.592 84.11 634.852 85.1C633.112 86.06 631.087 86.54 628.777 86.54ZM628.777 80.15C630.247 80.15 631.432 79.685 632.332 78.755C633.262 77.795 633.727 76.55 633.727 75.02C633.727 73.46 633.262 72.2 632.332 71.24C631.432 70.28 630.247 69.8 628.777 69.8C627.367 69.8 626.197 70.28 625.267 71.24C624.367 72.17 623.917 73.415 623.917 74.975C623.917 76.535 624.367 77.795 625.267 78.755C626.197 79.685 627.367 80.15 628.777 80.15ZM657.111 63.455C658.581 63.455 659.781 63.71 660.711 64.22C661.641 64.7 662.346 65.375 662.826 66.245C663.336 67.115 663.666 68.105 663.816 69.215C663.996 70.295 664.086 71.42 664.086 72.59V86H657.516V72.95C657.516 71.69 657.291 70.865 656.841 70.475C656.391 70.055 655.791 69.845 655.041 69.845C654.411 69.845 653.751 69.98 653.061 70.25C652.401 70.49 651.756 70.835 651.126 71.285C650.496 71.735 649.941 72.245 649.461 72.815L648.291 69.485H650.136V86H643.566V63.995H648.426L649.776 68.36L647.526 68.18C648.306 67.31 649.191 66.515 650.181 65.795C651.171 65.075 652.251 64.505 653.421 64.085C654.591 63.665 655.821 63.455 657.111 63.455ZM677.939 86.405C675.749 86.405 673.814 85.94 672.134 85.01C670.484 84.08 669.194 82.76 668.264 81.05C667.364 79.34 666.914 77.33 666.914 75.02C666.914 72.74 667.364 70.73 668.264 68.99C669.194 67.25 670.484 65.9 672.134 64.94C673.814 63.95 675.749 63.455 677.939 63.455C680.189 63.455 682.139 63.965 683.789 64.985C685.439 66.005 686.714 67.385 687.614 69.125C688.514 70.835 688.964 72.77 688.964 74.93C688.964 75.32 688.949 75.695 688.919 76.055C688.889 76.415 688.859 76.7 688.829 76.91H672.044V72.23H683.789L683.024 74.165C683.024 72.515 682.604 71.165 681.764 70.115C680.954 69.065 679.694 68.54 677.984 68.54C676.454 68.54 675.224 69.005 674.294 69.935C673.394 70.865 672.944 72.095 672.944 73.625V76.1C672.944 77.75 673.409 79.04 674.339 79.97C675.299 80.87 676.619 81.32 678.299 81.32C679.709 81.32 680.819 81.035 681.629 80.465C682.469 79.895 683.174 79.19 683.744 78.35L688.199 80.825C687.239 82.595 685.889 83.975 684.149 84.965C682.409 85.925 680.339 86.405 677.939 86.405ZM698.615 84.335L689.795 63.995H696.455L704.825 83.345L698.615 84.335ZM693.89 94.55L707.165 63.995H713.825L700.595 94.55H693.89Z" fill="white"/>
<rect x="115" y="120" width="460" height="72" rx="12" fill="white"/>
<path d="M148.798 162V150.984H151.444V162H148.798ZM145.162 152.28V149.742H155.152V152.28H145.162ZM158.077 161.334L154.549 153.198H157.213L160.561 160.938L158.077 161.334ZM156.187 165.42L161.497 153.198H164.161L158.869 165.42H156.187ZM169.851 162.216C169.071 162.216 168.393 162.042 167.817 161.694C167.253 161.334 166.815 160.812 166.503 160.128C166.191 159.444 166.035 158.604 166.035 157.608C166.035 156.648 166.191 155.826 166.503 155.142C166.827 154.446 167.277 153.912 167.853 153.54C168.429 153.168 169.101 152.982 169.869 152.982C170.673 152.982 171.375 153.18 171.975 153.576C172.587 153.96 173.061 154.5 173.397 155.196C173.745 155.892 173.919 156.696 173.919 157.608C173.919 158.508 173.745 159.306 173.397 160.002C173.049 160.698 172.569 161.244 171.957 161.64C171.345 162.024 170.643 162.216 169.851 162.216ZM164.991 165.42V153.198H166.953L167.619 155.448H167.457V159.552H167.619V165.42H164.991ZM169.365 159.75C169.905 159.75 170.349 159.552 170.697 159.156C171.057 158.748 171.237 158.232 171.237 157.608C171.237 156.972 171.057 156.456 170.697 156.06C170.349 155.652 169.905 155.448 169.365 155.448C168.837 155.448 168.393 155.652 168.033 156.06C167.673 156.456 167.493 156.966 167.493 157.59C167.493 158.226 167.673 158.748 168.033 159.156C168.393 159.552 168.837 159.75 169.365 159.75ZM179.021 162.162C178.145 162.162 177.371 161.976 176.699 161.604C176.039 161.232 175.523 160.704 175.151 160.02C174.791 159.336 174.611 158.532 174.611 157.608C174.611 156.696 174.791 155.892 175.151 155.196C175.523 154.5 176.039 153.96 176.699 153.576C177.371 153.18 178.145 152.982 179.021 152.982C179.921 152.982 180.701 153.186 181.361 153.594C182.021 154.002 182.531 154.554 182.891 155.25C183.251 155.934 183.431 156.708 183.431 157.572C183.431 157.728 183.425 157.878 183.413 158.022C183.401 158.166 183.389 158.28 183.377 158.364H176.663V156.492H181.361L181.055 157.266C181.055 156.606 180.887 156.066 180.551 155.646C180.227 155.226 179.723 155.016 179.039 155.016C178.427 155.016 177.935 155.202 177.563 155.574C177.203 155.946 177.023 156.438 177.023 157.05V158.04C177.023 158.7 177.209 159.216 177.581 159.588C177.965 159.948 178.493 160.128 179.165 160.128C179.729 160.128 180.173 160.014 180.497 159.786C180.833 159.558 181.115 159.276 181.343 158.94L183.125 159.93C182.741 160.638 182.201 161.19 181.505 161.586C180.809 161.97 179.981 162.162 179.021 162.162ZM194.572 156.168H193.33L196.57 149.742H199.396L195.04 158.13L195.22 156.618V162H192.592V156.618L192.772 158.13L188.434 149.742H191.35L194.572 156.168ZM202.862 162.216C201.95 162.216 201.146 162.024 200.45 161.64C199.754 161.244 199.214 160.698 198.83 160.002C198.446 159.306 198.254 158.508 198.254 157.608C198.254 156.696 198.446 155.892 198.83 155.196C199.214 154.5 199.754 153.96 200.45 153.576C201.146 153.18 201.95 152.982 202.862 152.982C203.786 152.982 204.596 153.18 205.292 153.576C205.988 153.96 206.528 154.5 206.912 155.196C207.308 155.892 207.506 156.696 207.506 157.608C207.506 158.508 207.308 159.306 206.912 160.002C206.528 160.698 205.988 161.244 205.292 161.64C204.596 162.024 203.786 162.216 202.862 162.216ZM202.862 159.66C203.45 159.66 203.924 159.474 204.284 159.102C204.656 158.718 204.842 158.22 204.842 157.608C204.842 156.984 204.656 156.48 204.284 156.096C203.924 155.712 203.45 155.52 202.862 155.52C202.298 155.52 201.83 155.712 201.458 156.096C201.098 156.468 200.918 156.966 200.918 157.59C200.918 158.214 201.098 158.718 201.458 159.102C201.83 159.474 202.298 159.66 202.862 159.66ZM211.713 162.216C211.065 162.216 210.537 162.12 210.129 161.928C209.733 161.736 209.421 161.472 209.193 161.136C208.977 160.788 208.827 160.398 208.743 159.966C208.671 159.522 208.635 159.054 208.635 158.562V153.198H211.263V158.418C211.263 158.91 211.365 159.24 211.569 159.408C211.773 159.564 212.025 159.642 212.325 159.642C212.589 159.642 212.847 159.6 213.099 159.516C213.351 159.42 213.597 159.288 213.837 159.12C214.077 158.94 214.293 158.724 214.485 158.472L214.935 159.804H214.197V153.198H216.843V162H214.881L214.341 160.254L215.241 160.326C214.953 160.662 214.617 160.98 214.233 161.28C213.861 161.568 213.465 161.796 213.045 161.964C212.625 162.132 212.181 162.216 211.713 162.216ZM220.653 153.198L221.337 155.628V162H218.709V153.198H220.653ZM220.761 157.086L220.311 156.888V154.854L220.473 154.638C220.617 154.434 220.821 154.2 221.085 153.936C221.361 153.672 221.679 153.45 222.039 153.27C222.411 153.078 222.789 152.982 223.173 152.982C223.365 152.982 223.539 152.994 223.695 153.018C223.851 153.042 223.977 153.084 224.073 153.144V155.538H223.479C222.711 155.538 222.105 155.664 221.661 155.916C221.229 156.156 220.929 156.546 220.761 157.086ZM233.883 162.162C233.007 162.162 232.233 161.976 231.561 161.604C230.901 161.232 230.385 160.704 230.013 160.02C229.653 159.336 229.473 158.532 229.473 157.608C229.473 156.696 229.653 155.892 230.013 155.196C230.385 154.5 230.901 153.96 231.561 153.576C232.233 153.18 233.007 152.982 233.883 152.982C234.783 152.982 235.563 153.186 236.223 153.594C236.883 154.002 237.393 154.554 237.753 155.25C238.113 155.934 238.293 156.708 238.293 157.572C238.293 157.728 238.287 157.878 238.275 158.022C238.263 158.166 238.251 158.28 238.239 158.364H231.525V156.492H236.223L235.917 157.266C235.917 156.606 235.749 156.066 235.413 155.646C235.089 155.226 234.585 155.016 233.901 155.016C233.289 155.016 232.797 155.202 232.425 155.574C232.065 155.946 231.885 156.438 231.885 157.05V158.04C231.885 158.7 232.071 159.216 232.443 159.588C232.827 159.948 233.355 160.128 234.027 160.128C234.591 160.128 235.035 160.014 235.359 159.786C235.695 159.558 235.977 159.276 236.205 158.94L237.987 159.93C237.603 160.638 237.063 161.19 236.367 161.586C235.671 161.97 234.843 162.162 233.883 162.162ZM239.61 162V153.198H241.554L242.094 154.944L241.194 154.872C241.494 154.524 241.836 154.206 242.22 153.918C242.604 153.63 243.024 153.402 243.48 153.234C243.936 153.066 244.41 152.982 244.902 152.982C245.49 152.982 245.958 153.084 246.306 153.288C246.666 153.48 246.936 153.75 247.116 154.098C247.308 154.446 247.434 154.842 247.494 155.286C247.566 155.718 247.602 156.168 247.602 156.636V162H244.974V156.78C244.974 156.276 244.884 155.946 244.704 155.79C244.524 155.622 244.302 155.538 244.038 155.538C243.666 155.538 243.3 155.652 242.94 155.88C242.58 156.096 242.256 156.378 241.968 156.726L241.5 155.394H242.238V162H239.61ZM250.338 162V156.78C250.338 156.276 250.248 155.946 250.068 155.79C249.9 155.622 249.684 155.538 249.42 155.538C249.036 155.538 248.664 155.652 248.304 155.88C247.944 156.096 247.62 156.378 247.332 156.726L246.558 154.872C246.87 154.524 247.218 154.206 247.602 153.918C247.986 153.63 248.4 153.402 248.844 153.234C249.3 153.066 249.774 152.982 250.266 152.982C250.854 152.982 251.328 153.084 251.688 153.288C252.048 153.48 252.318 153.75 252.498 154.098C252.678 154.446 252.804 154.842 252.876 155.286C252.948 155.718 252.984 156.168 252.984 156.636V162H250.338ZM257.374 162.234C256.738 162.234 256.174 162.114 255.682 161.874C255.202 161.622 254.83 161.274 254.566 160.83C254.302 160.386 254.17 159.87 254.17 159.282C254.17 158.658 254.314 158.13 254.602 157.698C254.89 157.254 255.274 156.912 255.754 156.672C256.246 156.432 256.792 156.312 257.392 156.312C258.268 156.312 258.976 156.51 259.516 156.906C260.056 157.302 260.416 157.872 260.596 158.616L259.462 158.418V156.366C259.462 156.042 259.348 155.76 259.12 155.52C258.892 155.28 258.526 155.16 258.022 155.16C257.698 155.16 257.326 155.202 256.906 155.286C256.486 155.358 256.054 155.502 255.61 155.718L254.836 153.846C255.364 153.582 255.928 153.372 256.528 153.216C257.14 153.06 257.764 152.982 258.4 152.982C259.216 152.982 259.9 153.126 260.452 153.414C261.004 153.702 261.412 154.11 261.676 154.638C261.952 155.166 262.09 155.778 262.09 156.474V162H259.948L259.426 160.29L260.596 159.93C260.404 160.65 260.038 161.214 259.498 161.622C258.958 162.03 258.25 162.234 257.374 162.234ZM258.184 160.362C258.58 160.362 258.892 160.26 259.12 160.056C259.36 159.852 259.48 159.594 259.48 159.282C259.48 158.946 259.36 158.682 259.12 158.49C258.892 158.298 258.58 158.202 258.184 158.202C257.788 158.202 257.476 158.298 257.248 158.49C257.02 158.682 256.906 158.946 256.906 159.282C256.906 159.594 257.02 159.852 257.248 160.056C257.476 160.26 257.788 160.362 258.184 160.362ZM266.496 162H263.868V153.198H266.496V162ZM263.634 150.426C263.634 149.958 263.772 149.58 264.048 149.292C264.336 149.004 264.714 148.86 265.182 148.86C265.65 148.86 266.022 149.004 266.298 149.292C266.586 149.58 266.73 149.958 266.73 150.426C266.73 150.882 266.586 151.254 266.298 151.542C266.022 151.818 265.65 151.956 265.182 151.956C264.714 151.956 264.336 151.818 264.048 151.542C263.772 151.254 263.634 150.882 263.634 150.426ZM270.869 162.09C270.425 162.09 270.017 162 269.645 161.82C269.273 161.64 268.973 161.364 268.745 160.992C268.517 160.608 268.403 160.098 268.403 159.462V149.742H271.013V158.526C271.013 158.97 271.091 159.258 271.247 159.39C271.415 159.51 271.625 159.57 271.877 159.57V162C271.757 162.024 271.595 162.042 271.391 162.054C271.199 162.078 271.025 162.09 270.869 162.09Z" fill="#D9D9D9"/>
<rect x="595" y="120.5" width="220" height="71" rx="15" fill="black"/>
<path d="M644.4 163.34C643.613 163.34 642.873 163.227 642.18 163C641.5 162.76 640.887 162.407 640.34 161.94C639.807 161.46 639.353 160.847 638.98 160.1L641.26 158.68C641.647 159.32 642.12 159.807 642.68 160.14C643.24 160.473 643.867 160.64 644.56 160.64C645.16 160.64 645.613 160.513 645.92 160.26C646.227 160.007 646.38 159.673 646.38 159.26C646.38 158.993 646.307 158.767 646.16 158.58C646.027 158.38 645.78 158.193 645.42 158.02C645.06 157.847 644.54 157.68 643.86 157.52C642.753 157.253 641.873 156.92 641.22 156.52C640.58 156.12 640.127 155.647 639.86 155.1C639.593 154.54 639.46 153.92 639.46 153.24C639.46 152.44 639.653 151.733 640.04 151.12C640.44 150.493 641.007 150 641.74 149.64C642.473 149.28 643.347 149.1 644.36 149.1C645.507 149.1 646.473 149.327 647.26 149.78C648.06 150.233 648.7 150.827 649.18 151.56L646.9 153.14C646.553 152.687 646.133 152.36 645.64 152.16C645.16 151.96 644.68 151.86 644.2 151.86C643.627 151.86 643.18 151.973 642.86 152.2C642.553 152.413 642.4 152.72 642.4 153.12C642.4 153.493 642.56 153.807 642.88 154.06C643.2 154.3 643.827 154.527 644.76 154.74C645.88 155.007 646.78 155.333 647.46 155.72C648.14 156.107 648.633 156.58 648.94 157.14C649.247 157.7 649.4 158.373 649.4 159.16C649.4 159.96 649.193 160.673 648.78 161.3C648.38 161.927 647.807 162.427 647.06 162.8C646.313 163.16 645.427 163.34 644.4 163.34ZM654.227 163.24C653.507 163.24 652.92 163.133 652.467 162.92C652.027 162.707 651.68 162.413 651.427 162.04C651.187 161.653 651.02 161.22 650.927 160.74C650.847 160.247 650.807 159.727 650.807 159.18V153.22H653.727V159.02C653.727 159.567 653.84 159.933 654.067 160.12C654.293 160.293 654.573 160.38 654.907 160.38C655.2 160.38 655.487 160.333 655.767 160.24C656.047 160.133 656.32 159.987 656.587 159.8C656.853 159.6 657.093 159.36 657.307 159.08L657.807 160.56H656.987V153.22H659.927V163H657.747L657.147 161.06L658.147 161.14C657.827 161.513 657.453 161.867 657.027 162.2C656.613 162.52 656.173 162.773 655.707 162.96C655.24 163.147 654.747 163.24 654.227 163.24ZM667.421 163.24C666.568 163.24 665.821 163.033 665.181 162.62C664.541 162.193 664.041 161.6 663.681 160.84C663.334 160.067 663.161 159.153 663.161 158.1C663.161 156.993 663.334 156.06 663.681 155.3C664.028 154.54 664.514 153.967 665.141 153.58C665.781 153.18 666.534 152.98 667.401 152.98C668.281 152.98 669.061 153.2 669.741 153.64C670.421 154.067 670.954 154.667 671.341 155.44C671.728 156.213 671.921 157.1 671.921 158.1C671.921 159.1 671.728 159.993 671.341 160.78C670.968 161.553 670.441 162.16 669.761 162.6C669.094 163.027 668.314 163.24 667.421 163.24ZM662.001 163V149.38H664.921V155.94H664.741V160.5H664.921L664.181 163H662.001ZM666.861 160.5C667.461 160.5 667.954 160.28 668.341 159.84C668.741 159.387 668.941 158.807 668.941 158.1C668.941 157.407 668.741 156.84 668.341 156.4C667.954 155.947 667.461 155.72 666.861 155.72C666.274 155.72 665.781 155.947 665.381 156.4C664.981 156.84 664.781 157.407 664.781 158.1C664.781 158.807 664.981 159.387 665.381 159.84C665.781 160.28 666.274 160.5 666.861 160.5ZM676.929 163.3C676.142 163.3 675.402 163.147 674.709 162.84C674.029 162.533 673.409 162.007 672.849 161.26L674.509 159.66C674.962 160.127 675.395 160.46 675.809 160.66C676.222 160.86 676.675 160.96 677.169 160.96C677.462 160.96 677.695 160.9 677.869 160.78C678.055 160.647 678.149 160.487 678.149 160.3C678.149 160.14 678.095 160.007 677.989 159.9C677.882 159.793 677.682 159.687 677.389 159.58C677.095 159.473 676.669 159.347 676.109 159.2C675.082 158.947 674.315 158.58 673.809 158.1C673.315 157.607 673.069 156.953 673.069 156.14C673.069 155.553 673.222 155.02 673.529 154.54C673.835 154.047 674.275 153.653 674.849 153.36C675.422 153.067 676.102 152.92 676.889 152.92C677.822 152.92 678.615 153.1 679.269 153.46C679.922 153.807 680.462 154.233 680.889 154.74L679.089 156.28C678.795 156.013 678.442 155.787 678.029 155.6C677.615 155.413 677.149 155.32 676.629 155.32C676.349 155.32 676.109 155.373 675.909 155.48C675.709 155.587 675.609 155.747 675.609 155.96C675.609 156.16 675.729 156.327 675.969 156.46C676.209 156.593 676.689 156.747 677.409 156.92C678.622 157.213 679.489 157.607 680.009 158.1C680.542 158.593 680.809 159.253 680.809 160.08C680.809 160.72 680.642 161.287 680.309 161.78C679.975 162.26 679.515 162.633 678.929 162.9C678.342 163.167 677.675 163.3 676.929 163.3ZM686.753 163.24C685.753 163.24 684.873 163.02 684.113 162.58C683.366 162.14 682.786 161.533 682.373 160.76C681.96 159.987 681.753 159.1 681.753 158.1C681.753 157.1 681.96 156.22 682.373 155.46C682.786 154.687 683.366 154.08 684.113 153.64C684.873 153.2 685.753 152.98 686.753 152.98C687.846 152.98 688.793 153.247 689.593 153.78C690.393 154.313 690.966 155.033 691.313 155.94L688.673 157.12C688.486 156.707 688.24 156.387 687.933 156.16C687.626 155.92 687.24 155.8 686.773 155.8C686.186 155.8 685.693 156.007 685.293 156.42C684.893 156.82 684.693 157.38 684.693 158.1C684.693 158.82 684.893 159.387 685.293 159.8C685.693 160.2 686.186 160.4 686.773 160.4C687.24 160.4 687.626 160.287 687.933 160.06C688.24 159.833 688.486 159.513 688.673 159.1L691.313 160.26C690.966 161.167 690.386 161.893 689.573 162.44C688.76 162.973 687.82 163.24 686.753 163.24ZM694.591 153.22L695.351 155.92V163H692.431V153.22H694.591ZM694.711 157.54L694.211 157.32V155.06L694.391 154.82C694.551 154.593 694.777 154.333 695.071 154.04C695.377 153.747 695.731 153.5 696.131 153.3C696.544 153.087 696.964 152.98 697.391 152.98C697.604 152.98 697.797 152.993 697.971 153.02C698.144 153.047 698.284 153.093 698.391 153.16V155.82H697.731C696.877 155.82 696.204 155.96 695.711 156.24C695.231 156.507 694.897 156.94 694.711 157.54ZM702.734 163H699.814V153.22H702.734V163ZM699.554 150.14C699.554 149.62 699.708 149.2 700.014 148.88C700.334 148.56 700.754 148.4 701.274 148.4C701.794 148.4 702.208 148.56 702.514 148.88C702.834 149.2 702.994 149.62 702.994 150.14C702.994 150.647 702.834 151.06 702.514 151.38C702.208 151.687 701.794 151.84 701.274 151.84C700.754 151.84 700.334 151.687 700.014 151.38C699.708 151.06 699.554 150.647 699.554 150.14ZM710.273 163.24C709.419 163.24 708.673 163.033 708.033 162.62C707.393 162.193 706.893 161.6 706.533 160.84C706.186 160.067 706.013 159.153 706.013 158.1C706.013 156.993 706.186 156.06 706.533 155.3C706.879 154.54 707.366 153.967 707.993 153.58C708.633 153.18 709.386 152.98 710.253 152.98C711.133 152.98 711.913 153.2 712.593 153.64C713.273 154.067 713.806 154.667 714.193 155.44C714.579 156.213 714.773 157.1 714.773 158.1C714.773 159.1 714.579 159.993 714.193 160.78C713.819 161.553 713.293 162.16 712.613 162.6C711.946 163.027 711.166 163.24 710.273 163.24ZM704.853 163V149.38H707.773V155.94H707.593V160.5H707.773L707.033 163H704.853ZM709.713 160.5C710.313 160.5 710.806 160.28 711.193 159.84C711.593 159.387 711.793 158.807 711.793 158.1C711.793 157.407 711.593 156.84 711.193 156.4C710.806 155.947 710.313 155.72 709.713 155.72C709.126 155.72 708.633 155.947 708.233 156.4C707.833 156.84 707.633 157.407 707.633 158.1C707.633 158.807 707.833 159.387 708.233 159.84C708.633 160.28 709.126 160.5 709.713 160.5ZM720.442 163.18C719.469 163.18 718.609 162.973 717.862 162.56C717.129 162.147 716.555 161.56 716.142 160.8C715.742 160.04 715.542 159.147 715.542 158.12C715.542 157.107 715.742 156.213 716.142 155.44C716.555 154.667 717.129 154.067 717.862 153.64C718.609 153.2 719.469 152.98 720.442 152.98C721.442 152.98 722.309 153.207 723.042 153.66C723.775 154.113 724.342 154.727 724.742 155.5C725.142 156.26 725.342 157.12 725.342 158.08C725.342 158.253 725.335 158.42 725.322 158.58C725.309 158.74 725.295 158.867 725.282 158.96H717.822V156.88H723.042L722.702 157.74C722.702 157.007 722.515 156.407 722.142 155.94C721.782 155.473 721.222 155.24 720.462 155.24C719.782 155.24 719.235 155.447 718.822 155.86C718.422 156.273 718.222 156.82 718.222 157.5V158.6C718.222 159.333 718.429 159.907 718.842 160.32C719.269 160.72 719.855 160.92 720.602 160.92C721.229 160.92 721.722 160.793 722.082 160.54C722.455 160.287 722.769 159.973 723.022 159.6L725.002 160.7C724.575 161.487 723.975 162.1 723.202 162.54C722.429 162.967 721.509 163.18 720.442 163.18ZM741.281 163L733.821 152.9L735.081 152.56V163H732.161V149.38H734.821L742.121 159.3L741.001 159.5V149.38H743.921V163H741.281ZM750.721 163.24C749.708 163.24 748.814 163.027 748.041 162.6C747.268 162.16 746.668 161.553 746.241 160.78C745.814 160.007 745.601 159.12 745.601 158.12C745.601 157.107 745.814 156.213 746.241 155.44C746.668 154.667 747.268 154.067 748.041 153.64C748.814 153.2 749.708 152.98 750.721 152.98C751.748 152.98 752.648 153.2 753.421 153.64C754.194 154.067 754.794 154.667 755.221 155.44C755.661 156.213 755.881 157.107 755.881 158.12C755.881 159.12 755.661 160.007 755.221 160.78C754.794 161.553 754.194 162.16 753.421 162.6C752.648 163.027 751.748 163.24 750.721 163.24ZM750.721 160.4C751.374 160.4 751.901 160.193 752.301 159.78C752.714 159.353 752.921 158.8 752.921 158.12C752.921 157.427 752.714 156.867 752.301 156.44C751.901 156.013 751.374 155.8 750.721 155.8C750.094 155.8 749.574 156.013 749.161 156.44C748.761 156.853 748.561 157.407 748.561 158.1C748.561 158.793 748.761 159.353 749.161 159.78C749.574 160.193 750.094 160.4 750.721 160.4ZM759.002 163L756.062 153.22H758.922L761.042 160.8H759.962L762.422 153.22H764.702L767.162 160.8H766.102L768.202 153.22H770.962L768.022 163H765.402L763.122 156.28H764.002L761.722 163H759.002Z" fill="white"/>
</svg>
