<svg width="935" height="250" viewBox="0 0 935 250" fill="none" xmlns="http://www.w3.org/2000/svg">
<rect width="935" height="250" rx="12" fill="#F99001"/>
<path d="M239.138 54.5239L239.379 64.4556H238.479C238.054 61.9653 237.006 59.9658 235.336 58.457C233.681 56.9336 231.887 56.1719 229.953 56.1719C228.459 56.1719 227.272 56.5747 226.394 57.3804C225.529 58.1714 225.097 59.0869 225.097 60.127C225.097 60.7861 225.251 61.3721 225.559 61.8848C225.983 62.5732 226.665 63.2544 227.602 63.9282C228.291 64.4116 229.88 65.2686 232.37 66.499C235.856 68.2129 238.208 69.8315 239.423 71.355C240.625 72.8784 241.225 74.6216 241.225 76.5845C241.225 79.0747 240.251 81.2207 238.303 83.0225C236.369 84.8096 233.908 85.7031 230.92 85.7031C229.982 85.7031 229.096 85.6079 228.261 85.4175C227.426 85.2271 226.379 84.8682 225.119 84.3408C224.416 84.0479 223.837 83.9014 223.383 83.9014C223.002 83.9014 222.6 84.0479 222.175 84.3408C221.75 84.6338 221.406 85.0806 221.142 85.6812H220.329V74.4312H221.142C221.787 77.5952 223.024 80.0122 224.855 81.6821C226.701 83.3374 228.686 84.165 230.81 84.165C232.451 84.165 233.754 83.7183 234.721 82.8247C235.703 81.9312 236.193 80.8911 236.193 79.7046C236.193 79.0015 236.003 78.3203 235.622 77.6611C235.256 77.002 234.692 76.3794 233.93 75.7935C233.168 75.1929 231.821 74.4165 229.887 73.4644C227.177 72.1313 225.229 70.9961 224.042 70.0586C222.856 69.1211 221.94 68.0737 221.296 66.9165C220.666 65.7593 220.351 64.4849 220.351 63.0933C220.351 60.7202 221.223 58.6987 222.966 57.0288C224.709 55.3589 226.906 54.5239 229.558 54.5239C230.524 54.5239 231.462 54.6411 232.37 54.8755C233.059 55.0513 233.894 55.3809 234.875 55.8643C235.871 56.333 236.567 56.5674 236.962 56.5674C237.343 56.5674 237.644 56.4502 237.863 56.2158C238.083 55.9814 238.288 55.4175 238.479 54.5239H239.138ZM255.903 81.9678C253.398 84.1797 251.149 85.2856 249.157 85.2856C247.985 85.2856 247.011 84.9048 246.235 84.1431C245.458 83.3667 245.07 82.3999 245.07 81.2427C245.07 79.6753 245.744 78.269 247.092 77.0239C248.439 75.7642 251.376 74.0942 255.903 72.0142V69.9487C255.903 68.396 255.815 67.4219 255.639 67.0264C255.478 66.6162 255.163 66.2646 254.694 65.9717C254.226 65.6641 253.698 65.5103 253.112 65.5103C252.16 65.5103 251.376 65.7227 250.761 66.1475C250.38 66.4111 250.19 66.7188 250.19 67.0703C250.19 67.3779 250.395 67.7588 250.805 68.2129C251.362 68.8428 251.64 69.4507 251.64 70.0366C251.64 70.7544 251.369 71.3696 250.827 71.8823C250.3 72.3804 249.604 72.6294 248.74 72.6294C247.817 72.6294 247.041 72.3511 246.411 71.7944C245.795 71.2378 245.488 70.5859 245.488 69.8389C245.488 68.7842 245.905 67.7808 246.74 66.8286C247.575 65.8618 248.74 65.1221 250.234 64.6094C251.728 64.0967 253.281 63.8403 254.892 63.8403C256.84 63.8403 258.378 64.2578 259.506 65.0928C260.649 65.9131 261.389 66.8066 261.726 67.7734C261.931 68.3887 262.033 69.8022 262.033 72.0142V79.9902C262.033 80.9277 262.07 81.521 262.143 81.77C262.216 82.0044 262.326 82.1802 262.473 82.2974C262.619 82.4146 262.788 82.4731 262.978 82.4731C263.359 82.4731 263.747 82.2021 264.143 81.6602L264.802 82.1875C264.069 83.2715 263.308 84.0625 262.517 84.5605C261.74 85.0439 260.854 85.2856 259.858 85.2856C258.686 85.2856 257.771 85.0146 257.111 84.4727C256.452 83.916 256.049 83.0811 255.903 81.9678ZM255.903 80.3638V73.4863C254.13 74.5264 252.812 75.6396 251.948 76.8262C251.376 77.6172 251.091 78.4155 251.091 79.2212C251.091 79.895 251.333 80.4883 251.816 81.001C252.182 81.3965 252.695 81.5942 253.354 81.5942C254.086 81.5942 254.936 81.1841 255.903 80.3638ZM276.337 85.6152L269.416 69.6851C268.581 67.7661 267.929 66.5503 267.46 66.0376C267.124 65.6567 266.625 65.4004 265.966 65.2686V64.4556H276.887V65.2686C276.198 65.2686 275.729 65.3931 275.48 65.6421C275.129 65.9644 274.953 66.3452 274.953 66.7847C274.953 67.3267 275.275 68.3447 275.92 69.8389L279.304 77.5513L282.006 70.8936C282.783 68.9893 283.171 67.6416 283.171 66.8506C283.171 66.3965 283.002 66.0303 282.666 65.752C282.343 65.459 281.765 65.2979 280.93 65.2686V64.4556H287.653V65.2686C287.009 65.3564 286.481 65.5981 286.071 65.9937C285.661 66.3892 285.046 67.5537 284.226 69.4873L277.37 85.6152H276.337ZM306.967 73.9917H295.695C295.827 76.7163 296.552 78.8696 297.871 80.4517C298.881 81.6675 300.097 82.2754 301.518 82.2754C302.397 82.2754 303.195 82.0337 303.913 81.5503C304.631 81.0522 305.4 80.166 306.22 78.8916L306.967 79.375C305.854 81.6455 304.624 83.2568 303.276 84.209C301.928 85.1465 300.368 85.6152 298.596 85.6152C295.549 85.6152 293.242 84.4434 291.674 82.0996C290.415 80.21 289.785 77.8662 289.785 75.0684C289.785 71.6406 290.708 68.916 292.553 66.8945C294.414 64.8584 296.589 63.8403 299.079 63.8403C301.159 63.8403 302.961 64.6973 304.484 66.4111C306.022 68.1104 306.85 70.6372 306.967 73.9917ZM301.562 72.5195C301.562 70.1611 301.43 68.5425 301.167 67.6636C300.917 66.7847 300.522 66.1182 299.98 65.6641C299.672 65.4004 299.262 65.2686 298.75 65.2686C297.988 65.2686 297.365 65.6421 296.882 66.3892C296.018 67.6929 295.585 69.48 295.585 71.7505V72.5195H301.562ZM346.848 55.2051V63.269H346.057C345.588 61.4087 345.068 60.0757 344.497 59.27C343.925 58.4497 343.142 57.7979 342.146 57.3145C341.589 57.0508 340.615 56.9189 339.223 56.9189H337.004V79.9023C337.004 81.4258 337.084 82.3779 337.246 82.7588C337.421 83.1396 337.751 83.4766 338.234 83.7695C338.732 84.0479 339.406 84.187 340.256 84.187H341.245V85H325.644V84.187H326.633C327.497 84.187 328.193 84.0332 328.72 83.7256C329.101 83.5205 329.401 83.1689 329.621 82.6709C329.782 82.3193 329.863 81.3965 329.863 79.9023V56.9189H327.709C325.703 56.9189 324.245 57.3438 323.337 58.1934C322.062 59.3799 321.257 61.0718 320.92 63.269H320.085V55.2051H346.848ZM354.099 54.502C355.051 54.502 355.856 54.8389 356.516 55.5127C357.175 56.1719 357.504 56.9702 357.504 57.9077C357.504 58.8452 357.167 59.6436 356.494 60.3027C355.834 60.9619 355.036 61.2915 354.099 61.2915C353.161 61.2915 352.363 60.9619 351.704 60.3027C351.044 59.6436 350.715 58.8452 350.715 57.9077C350.715 56.9702 351.044 56.1719 351.704 55.5127C352.363 54.8389 353.161 54.502 354.099 54.502ZM357.175 64.4556V80.7373C357.175 82.1875 357.343 83.1177 357.68 83.5278C358.017 83.9233 358.676 84.1504 359.658 84.209V85H348.562V84.209C349.47 84.1797 350.144 83.916 350.583 83.418C350.876 83.0811 351.022 82.1875 351.022 80.7373V68.7402C351.022 67.29 350.854 66.3672 350.517 65.9717C350.18 65.5615 349.528 65.3271 348.562 65.2686V64.4556H357.175ZM370.205 64.4556V67.1582C371.333 65.9277 372.373 65.0708 373.325 64.5874C374.292 64.0894 375.346 63.8403 376.489 63.8403C377.807 63.8403 378.913 64.1479 379.807 64.7632C380.7 65.3784 381.389 66.3159 381.872 67.5757C383.044 66.2573 384.165 65.3052 385.234 64.7192C386.318 64.1333 387.446 63.8403 388.618 63.8403C390.039 63.8403 391.167 64.1699 392.001 64.8291C392.851 65.4736 393.437 66.3013 393.759 67.312C394.096 68.3081 394.265 69.9048 394.265 72.1021V80.5176C394.265 82.0996 394.404 83.0811 394.682 83.4619C394.975 83.8428 395.576 84.0918 396.484 84.209V85H385.871V84.209C386.706 84.1357 387.321 83.8135 387.717 83.2422C387.98 82.8467 388.112 81.9385 388.112 80.5176V71.6846C388.112 69.8535 388.039 68.689 387.893 68.1909C387.746 67.6929 387.512 67.3267 387.189 67.0923C386.882 66.8433 386.516 66.7188 386.091 66.7188C385.461 66.7188 384.824 66.9531 384.179 67.4219C383.535 67.876 382.883 68.5645 382.224 69.4873V80.5176C382.224 81.9971 382.348 82.9272 382.597 83.3081C382.934 83.8501 383.579 84.1504 384.531 84.209V85H373.896V84.209C374.467 84.1797 374.914 84.0405 375.236 83.7915C375.573 83.5278 375.793 83.2202 375.896 82.8687C376.013 82.5024 376.071 81.7188 376.071 80.5176V71.6846C376.071 69.8242 375.998 68.6597 375.852 68.1909C375.705 67.7222 375.456 67.356 375.104 67.0923C374.768 66.8286 374.401 66.6968 374.006 66.6968C373.42 66.6968 372.885 66.8506 372.402 67.1582C371.713 67.6123 370.981 68.3887 370.205 69.4873V80.5176C370.205 81.9678 370.344 82.9272 370.622 83.396C370.915 83.8501 371.516 84.1211 372.424 84.209V85H361.833V84.209C362.697 84.1211 363.312 83.8428 363.679 83.374C363.928 83.0518 364.052 82.0996 364.052 80.5176V68.916C364.052 67.3633 363.906 66.3965 363.613 66.0156C363.334 65.6348 362.741 65.3857 361.833 65.2686V64.4556H370.205ZM416.567 73.9917H405.295C405.427 76.7163 406.152 78.8696 407.47 80.4517C408.481 81.6675 409.697 82.2754 411.118 82.2754C411.997 82.2754 412.795 82.0337 413.513 81.5503C414.23 81.0522 415 80.166 415.82 78.8916L416.567 79.375C415.454 81.6455 414.223 83.2568 412.875 84.209C411.528 85.1465 409.968 85.6152 408.195 85.6152C405.148 85.6152 402.841 84.4434 401.274 82.0996C400.014 80.21 399.384 77.8662 399.384 75.0684C399.384 71.6406 400.307 68.916 402.153 66.8945C404.013 64.8584 406.188 63.8403 408.679 63.8403C410.759 63.8403 412.561 64.6973 414.084 66.4111C415.622 68.1104 416.45 70.6372 416.567 73.9917ZM411.162 72.5195C411.162 70.1611 411.03 68.5425 410.766 67.6636C410.517 66.7847 410.122 66.1182 409.58 65.6641C409.272 65.4004 408.862 65.2686 408.349 65.2686C407.587 65.2686 406.965 65.6421 406.481 66.3892C405.617 67.6929 405.185 69.48 405.185 71.7505V72.5195H411.162ZM454.514 67.1802H463.654V68.0371C462.629 68.1836 461.823 68.4912 461.237 68.96C460.651 69.4141 459.89 70.4834 458.952 72.168C458.015 73.8525 456.696 75.7349 454.997 77.8149C456.491 79.1626 457.707 80.1001 458.645 80.6274C459.304 80.9937 459.948 81.1768 460.578 81.1768C461.662 81.1768 462.644 80.4663 463.522 79.0454L464.423 79.5288C463.222 81.8872 461.94 83.5645 460.578 84.5605C459.538 85.3076 458.352 85.6812 457.019 85.6812C455.876 85.6812 454.785 85.4395 453.745 84.9561C452.719 84.458 451.467 83.5352 449.987 82.1875C448.156 83.418 446.435 84.3115 444.824 84.8682C443.212 85.4102 441.535 85.6812 439.792 85.6812C437.009 85.6812 434.797 84.9268 433.156 83.418C431.516 81.9092 430.695 80.1367 430.695 78.1006C430.695 75.9033 431.479 73.9917 433.046 72.3657C434.614 70.7397 436.892 69.3335 439.88 68.147C439.499 67.1948 439.213 66.2646 439.023 65.3564C438.833 64.4482 438.737 63.5693 438.737 62.7197C438.737 60.376 439.558 58.4277 441.198 56.875C442.854 55.3076 444.963 54.5239 447.526 54.5239C449.592 54.5239 451.225 55.0439 452.426 56.084C453.642 57.1094 454.25 58.3105 454.25 59.6875C454.25 61.3428 453.627 62.7637 452.382 63.9502C451.152 65.1221 449.196 66.1987 446.516 67.1802C448.171 70.0952 450.595 73.2373 453.789 76.6064C455.942 74.1895 457.019 72.1167 457.019 70.3882C457.019 69.7729 456.806 69.2529 456.381 68.8281C455.957 68.3887 455.334 68.125 454.514 68.0371V67.1802ZM445.769 65.8618C447.307 65.2905 448.339 64.6826 448.867 64.0381C449.394 63.3789 449.658 62.5879 449.658 61.665C449.658 60.0244 449.226 58.6401 448.361 57.5122C447.79 56.7651 447.087 56.3916 446.252 56.3916C445.563 56.3916 444.97 56.6626 444.472 57.2046C443.989 57.7466 443.747 58.479 443.747 59.4019C443.747 60.1196 443.864 60.8887 444.099 61.709C444.333 62.5293 444.89 63.9136 445.769 65.8618ZM440.495 69.5532C439.323 70.0513 438.496 70.5786 438.012 71.1353C437.324 71.9556 436.979 72.8711 436.979 73.8818C436.979 75.2588 437.375 76.6284 438.166 77.9907C438.972 79.353 439.938 80.4077 441.066 81.1548C442.194 81.9019 443.322 82.2754 444.45 82.2754C445.007 82.2754 445.629 82.1582 446.318 81.9238C447.021 81.6748 447.783 81.3086 448.603 80.8252C445.073 77.207 442.37 73.4497 440.495 69.5532ZM498.767 54.5239L499.008 64.4556H498.107C497.683 61.9653 496.635 59.9658 494.965 58.457C493.31 56.9336 491.516 56.1719 489.582 56.1719C488.088 56.1719 486.901 56.5747 486.022 57.3804C485.158 58.1714 484.726 59.0869 484.726 60.127C484.726 60.7861 484.88 61.3721 485.188 61.8848C485.612 62.5732 486.293 63.2544 487.231 63.9282C487.919 64.4116 489.509 65.2686 491.999 66.499C495.485 68.2129 497.836 69.8315 499.052 71.355C500.253 72.8784 500.854 74.6216 500.854 76.5845C500.854 79.0747 499.88 81.2207 497.932 83.0225C495.998 84.8096 493.537 85.7031 490.549 85.7031C489.611 85.7031 488.725 85.6079 487.89 85.4175C487.055 85.2271 486.008 84.8682 484.748 84.3408C484.045 84.0479 483.466 83.9014 483.012 83.9014C482.631 83.9014 482.229 84.0479 481.804 84.3408C481.379 84.6338 481.035 85.0806 480.771 85.6812H479.958V74.4312H480.771C481.416 77.5952 482.653 80.0122 484.484 81.6821C486.33 83.3374 488.315 84.165 490.439 84.165C492.08 84.165 493.383 83.7183 494.35 82.8247C495.332 81.9312 495.822 80.8911 495.822 79.7046C495.822 79.0015 495.632 78.3203 495.251 77.6611C494.885 77.002 494.321 76.3794 493.559 75.7935C492.797 75.1929 491.45 74.4165 489.516 73.4644C486.806 72.1313 484.858 70.9961 483.671 70.0586C482.485 69.1211 481.569 68.0737 480.925 66.9165C480.295 65.7593 479.98 64.4849 479.98 63.0933C479.98 60.7202 480.852 58.6987 482.595 57.0288C484.338 55.3589 486.535 54.5239 489.187 54.5239C490.153 54.5239 491.091 54.6411 491.999 54.8755C492.688 55.0513 493.522 55.3809 494.504 55.8643C495.5 56.333 496.196 56.5674 496.591 56.5674C496.972 56.5674 497.272 56.4502 497.492 56.2158C497.712 55.9814 497.917 55.4175 498.107 54.5239H498.767ZM515.532 81.9678C513.027 84.1797 510.778 85.2856 508.786 85.2856C507.614 85.2856 506.64 84.9048 505.864 84.1431C505.087 83.3667 504.699 82.3999 504.699 81.2427C504.699 79.6753 505.373 78.269 506.721 77.0239C508.068 75.7642 511.005 74.0942 515.532 72.0142V69.9487C515.532 68.396 515.444 67.4219 515.268 67.0264C515.107 66.6162 514.792 66.2646 514.323 65.9717C513.854 65.6641 513.327 65.5103 512.741 65.5103C511.789 65.5103 511.005 65.7227 510.39 66.1475C510.009 66.4111 509.819 66.7188 509.819 67.0703C509.819 67.3779 510.024 67.7588 510.434 68.2129C510.991 68.8428 511.269 69.4507 511.269 70.0366C511.269 70.7544 510.998 71.3696 510.456 71.8823C509.929 72.3804 509.233 72.6294 508.369 72.6294C507.446 72.6294 506.669 72.3511 506.04 71.7944C505.424 71.2378 505.117 70.5859 505.117 69.8389C505.117 68.7842 505.534 67.7808 506.369 66.8286C507.204 65.8618 508.369 65.1221 509.863 64.6094C511.357 64.0967 512.91 63.8403 514.521 63.8403C516.469 63.8403 518.007 64.2578 519.135 65.0928C520.278 65.9131 521.018 66.8066 521.354 67.7734C521.56 68.3887 521.662 69.8022 521.662 72.0142V79.9902C521.662 80.9277 521.699 81.521 521.772 81.77C521.845 82.0044 521.955 82.1802 522.102 82.2974C522.248 82.4146 522.417 82.4731 522.607 82.4731C522.988 82.4731 523.376 82.2021 523.771 81.6602L524.431 82.1875C523.698 83.2715 522.937 84.0625 522.146 84.5605C521.369 85.0439 520.483 85.2856 519.487 85.2856C518.315 85.2856 517.399 85.0146 516.74 84.4727C516.081 83.916 515.678 83.0811 515.532 81.9678ZM515.532 80.3638V73.4863C513.759 74.5264 512.441 75.6396 511.577 76.8262C511.005 77.6172 510.72 78.4155 510.72 79.2212C510.72 79.895 510.961 80.4883 511.445 81.001C511.811 81.3965 512.324 81.5942 512.983 81.5942C513.715 81.5942 514.565 81.1841 515.532 80.3638ZM535.966 85.6152L529.045 69.6851C528.21 67.7661 527.558 66.5503 527.089 66.0376C526.752 65.6567 526.254 65.4004 525.595 65.2686V64.4556H536.516V65.2686C535.827 65.2686 535.358 65.3931 535.109 65.6421C534.758 65.9644 534.582 66.3452 534.582 66.7847C534.582 67.3267 534.904 68.3447 535.549 69.8389L538.933 77.5513L541.635 70.8936C542.412 68.9893 542.8 67.6416 542.8 66.8506C542.8 66.3965 542.631 66.0303 542.294 65.752C541.972 65.459 541.394 65.2979 540.559 65.2686V64.4556H547.282V65.2686C546.638 65.3564 546.11 65.5981 545.7 65.9937C545.29 66.3892 544.675 67.5537 543.854 69.4873L536.999 85.6152H535.966ZM566.596 73.9917H555.324C555.456 76.7163 556.181 78.8696 557.5 80.4517C558.51 81.6675 559.726 82.2754 561.147 82.2754C562.026 82.2754 562.824 82.0337 563.542 81.5503C564.26 81.0522 565.029 80.166 565.849 78.8916L566.596 79.375C565.483 81.6455 564.252 83.2568 562.905 84.209C561.557 85.1465 559.997 85.6152 558.225 85.6152C555.178 85.6152 552.871 84.4434 551.303 82.0996C550.043 80.21 549.414 77.8662 549.414 75.0684C549.414 71.6406 550.336 68.916 552.182 66.8945C554.042 64.8584 556.218 63.8403 558.708 63.8403C560.788 63.8403 562.59 64.6973 564.113 66.4111C565.651 68.1104 566.479 70.6372 566.596 73.9917ZM561.191 72.5195C561.191 70.1611 561.059 68.5425 560.795 67.6636C560.546 66.7847 560.151 66.1182 559.609 65.6641C559.301 65.4004 558.891 65.2686 558.378 65.2686C557.617 65.2686 556.994 65.6421 556.511 66.3892C555.646 67.6929 555.214 69.48 555.214 71.7505V72.5195H561.191ZM600.368 74.8486L608.454 55.2051H620.583V56.0181H619.616C618.737 56.0181 618.034 56.1719 617.507 56.4795C617.141 56.6846 616.848 57.0288 616.628 57.5122C616.467 57.8638 616.386 58.7793 616.386 60.2588V79.9023C616.386 81.4258 616.467 82.3779 616.628 82.7588C616.789 83.1396 617.119 83.4766 617.617 83.7695C618.115 84.0479 618.781 84.187 619.616 84.187H620.583V85H605.026V84.187H605.993C606.872 84.187 607.575 84.0332 608.103 83.7256C608.469 83.5205 608.762 83.1689 608.981 82.6709C609.143 82.3193 609.223 81.3965 609.223 79.9023V57.8198L597.797 85H597.27L585.668 58.0176V79.0015C585.668 80.4663 585.705 81.3672 585.778 81.7041C585.969 82.4365 586.379 83.0371 587.009 83.5059C587.653 83.96 588.657 84.187 590.019 84.187V85H579.824V84.187H580.131C580.791 84.2017 581.406 84.0991 581.977 83.8794C582.548 83.645 582.98 83.3374 583.273 82.9565C583.566 82.5757 583.793 82.041 583.955 81.3525C583.984 81.1914 583.999 80.4443 583.999 79.1113V60.2588C583.999 58.75 583.918 57.8125 583.757 57.4463C583.596 57.0654 583.266 56.7358 582.768 56.4575C582.27 56.1646 581.604 56.0181 580.769 56.0181H579.824V55.2051H591.997L600.368 74.8486ZM632.624 63.8403C634.411 63.8403 636.074 64.3018 637.612 65.2246C639.15 66.1475 640.314 67.4585 641.105 69.1577C641.911 70.8569 642.314 72.7173 642.314 74.7388C642.314 77.6538 641.574 80.0928 640.095 82.0557C638.308 84.4287 635.839 85.6152 632.69 85.6152C629.599 85.6152 627.219 84.5312 625.549 82.3633C623.879 80.1953 623.044 77.6831 623.044 74.8267C623.044 71.8823 623.894 69.3188 625.593 67.1362C627.307 64.939 629.65 63.8403 632.624 63.8403ZM632.712 65.4004C631.965 65.4004 631.32 65.686 630.778 66.2573C630.251 66.814 629.899 67.9272 629.724 69.5972C629.562 71.2524 629.482 73.5596 629.482 76.5186C629.482 78.0859 629.584 79.5508 629.79 80.9131C629.951 81.9531 630.295 82.7441 630.822 83.2861C631.35 83.8281 631.95 84.0991 632.624 84.0991C633.283 84.0991 633.833 83.916 634.272 83.5498C634.843 83.0518 635.224 82.356 635.415 81.4624C635.708 80.0708 635.854 77.2583 635.854 73.0249C635.854 70.5347 635.715 68.8281 635.437 67.9053C635.158 66.9678 634.748 66.2866 634.206 65.8618C633.825 65.5542 633.327 65.4004 632.712 65.4004ZM653.828 64.4556V67.1143C654.882 65.9717 655.893 65.144 656.86 64.6313C657.827 64.104 658.867 63.8403 659.98 63.8403C661.313 63.8403 662.419 64.2139 663.298 64.9609C664.177 65.6934 664.763 66.6089 665.056 67.7075C665.29 68.5425 665.407 70.1465 665.407 72.5195V80.5176C665.407 82.0996 665.546 83.0884 665.825 83.4839C666.118 83.8647 666.718 84.1064 667.626 84.209V85H657.233V84.209C658.01 84.1064 658.566 83.7842 658.903 83.2422C659.138 82.876 659.255 81.9678 659.255 80.5176V71.377C659.255 69.6924 659.189 68.6304 659.057 68.1909C658.925 67.7515 658.698 67.4146 658.376 67.1802C658.068 66.9312 657.724 66.8066 657.343 66.8066C656.083 66.8066 654.912 67.7075 653.828 69.5093V80.5176C653.828 82.0557 653.967 83.0298 654.245 83.4399C654.538 83.8501 655.073 84.1064 655.849 84.209V85H645.456V84.209C646.32 84.1211 646.936 83.8428 647.302 83.374C647.551 83.0518 647.675 82.0996 647.675 80.5176V68.916C647.675 67.3633 647.529 66.3965 647.236 66.0156C646.958 65.6348 646.364 65.3857 645.456 65.2686V64.4556H653.828ZM687.885 73.9917H676.613C676.745 76.7163 677.47 78.8696 678.789 80.4517C679.799 81.6675 681.015 82.2754 682.436 82.2754C683.315 82.2754 684.113 82.0337 684.831 81.5503C685.549 81.0522 686.318 80.166 687.138 78.8916L687.885 79.375C686.772 81.6455 685.542 83.2568 684.194 84.209C682.846 85.1465 681.286 85.6152 679.514 85.6152C676.467 85.6152 674.16 84.4434 672.592 82.0996C671.333 80.21 670.703 77.8662 670.703 75.0684C670.703 71.6406 671.625 68.916 673.471 66.8945C675.332 64.8584 677.507 63.8403 679.997 63.8403C682.077 63.8403 683.879 64.6973 685.402 66.4111C686.94 68.1104 687.768 70.6372 687.885 73.9917ZM682.48 72.5195C682.48 70.1611 682.348 68.5425 682.084 67.6636C681.835 66.7847 681.44 66.1182 680.898 65.6641C680.59 65.4004 680.18 65.2686 679.667 65.2686C678.906 65.2686 678.283 65.6421 677.8 66.3892C676.936 67.6929 676.503 69.48 676.503 71.7505V72.5195H682.48ZM699.904 85.835L693.269 70.6079C692.272 68.3081 691.533 66.8945 691.049 66.3672C690.581 65.8398 690.009 65.4736 689.335 65.2686V64.4556H700.256V65.2686C699.538 65.2979 699.033 65.437 698.74 65.686C698.447 65.9351 698.3 66.2354 698.3 66.5869C698.3 67.1436 698.667 68.2422 699.399 69.8828L702.915 77.9248L705.31 71.7065C706.174 69.4946 706.606 67.9565 706.606 67.0923C706.606 66.5503 706.423 66.1182 706.057 65.7959C705.705 65.4736 705.075 65.2979 704.167 65.2686V64.4556H711.044V65.2686C710.371 65.3418 709.821 65.6055 709.396 66.0596C708.972 66.499 708.261 68.0151 707.265 70.6079L701.398 85.835C699.919 89.6436 698.82 91.9873 698.103 92.8662C697.092 94.0967 695.825 94.7119 694.301 94.7119C693.085 94.7119 692.097 94.3604 691.335 93.6572C690.588 92.9688 690.214 92.1338 690.214 91.1523C690.214 90.3027 690.471 89.5996 690.983 89.043C691.511 88.4863 692.155 88.208 692.917 88.208C693.649 88.208 694.235 88.4424 694.675 88.9111C695.129 89.3799 695.363 90.105 695.378 91.0864C695.393 91.6431 695.458 92.002 695.576 92.1631C695.693 92.3242 695.861 92.4048 696.081 92.4048C696.433 92.4048 696.806 92.1924 697.202 91.7676C697.788 91.1523 698.476 89.7461 699.267 87.5488L699.904 85.835Z" fill="white"/>
<rect x="115" y="118" width="460" height="71" rx="12" fill="white"/>
<path d="M156.355 148.082V151.308H156.039C155.852 150.563 155.644 150.03 155.415 149.708C155.187 149.38 154.873 149.119 154.475 148.926C154.252 148.82 153.862 148.768 153.306 148.768H152.418V157.961C152.418 158.57 152.45 158.951 152.515 159.104C152.585 159.256 152.717 159.391 152.91 159.508C153.109 159.619 153.379 159.675 153.719 159.675H154.114V160H147.874V159.675H148.27C148.615 159.675 148.894 159.613 149.104 159.49C149.257 159.408 149.377 159.268 149.465 159.068C149.529 158.928 149.562 158.559 149.562 157.961V148.768H148.7C147.897 148.768 147.314 148.938 146.951 149.277C146.441 149.752 146.119 150.429 145.984 151.308H145.65V148.082H156.355ZM160.047 160.334L157.393 154.243C156.994 153.323 156.698 152.758 156.505 152.547C156.317 152.336 156.089 152.189 155.819 152.107V151.782H160.188V152.107C159.9 152.119 159.698 152.175 159.581 152.274C159.464 152.374 159.405 152.494 159.405 152.635C159.405 152.857 159.552 153.297 159.845 153.953L161.251 157.17L162.209 154.683C162.555 153.798 162.728 153.183 162.728 152.837C162.728 152.62 162.654 152.447 162.508 152.318C162.367 152.189 162.115 152.119 161.752 152.107V151.782H164.503V152.107C164.233 152.137 164.014 152.242 163.844 152.424C163.674 152.6 163.39 153.206 162.991 154.243L160.645 160.334C160.053 161.857 159.613 162.795 159.326 163.146C158.922 163.639 158.415 163.885 157.806 163.885C157.319 163.885 156.924 163.744 156.619 163.463C156.32 163.188 156.171 162.854 156.171 162.461C156.171 162.121 156.273 161.84 156.479 161.617C156.689 161.395 156.947 161.283 157.252 161.283C157.545 161.283 157.779 161.377 157.955 161.564C158.137 161.752 158.23 162.042 158.236 162.435C158.242 162.657 158.269 162.801 158.315 162.865C158.362 162.93 158.43 162.962 158.518 162.962C158.658 162.962 158.808 162.877 158.966 162.707C159.2 162.461 159.476 161.898 159.792 161.02L160.047 160.334ZM168.458 159.165V162.224C168.458 162.646 168.49 162.933 168.555 163.085C168.625 163.237 168.73 163.349 168.871 163.419C169.012 163.489 169.287 163.524 169.697 163.524V163.85H165.013V163.524C165.376 163.513 165.646 163.41 165.821 163.217C165.938 163.082 165.997 162.733 165.997 162.171V153.496C165.997 152.916 165.93 152.547 165.795 152.389C165.66 152.225 165.399 152.131 165.013 152.107V151.782H168.458V152.863C168.745 152.441 169.038 152.137 169.337 151.949C169.765 151.674 170.23 151.536 170.734 151.536C171.338 151.536 171.886 151.727 172.378 152.107C172.876 152.488 173.254 153.016 173.512 153.689C173.77 154.357 173.898 155.078 173.898 155.852C173.898 156.684 173.764 157.445 173.494 158.137C173.23 158.822 172.844 159.347 172.334 159.71C171.83 160.067 171.268 160.246 170.646 160.246C170.195 160.246 169.773 160.146 169.381 159.947C169.088 159.795 168.78 159.534 168.458 159.165ZM168.458 158.277C168.962 158.992 169.501 159.35 170.075 159.35C170.392 159.35 170.652 159.183 170.857 158.849C171.162 158.356 171.314 157.419 171.314 156.036C171.314 154.618 171.147 153.648 170.813 153.127C170.591 152.781 170.292 152.608 169.917 152.608C169.325 152.608 168.839 153.036 168.458 153.892V158.277ZM182.257 155.597H177.748C177.801 156.687 178.091 157.548 178.618 158.181C179.022 158.667 179.509 158.91 180.077 158.91C180.429 158.91 180.748 158.813 181.035 158.62C181.322 158.421 181.63 158.066 181.958 157.557L182.257 157.75C181.812 158.658 181.319 159.303 180.78 159.684C180.241 160.059 179.617 160.246 178.908 160.246C177.689 160.246 176.767 159.777 176.14 158.84C175.636 158.084 175.384 157.146 175.384 156.027C175.384 154.656 175.753 153.566 176.491 152.758C177.235 151.943 178.105 151.536 179.102 151.536C179.934 151.536 180.654 151.879 181.264 152.564C181.879 153.244 182.21 154.255 182.257 155.597ZM180.095 155.008C180.095 154.064 180.042 153.417 179.937 153.065C179.837 152.714 179.679 152.447 179.462 152.266C179.339 152.16 179.175 152.107 178.97 152.107C178.665 152.107 178.416 152.257 178.223 152.556C177.877 153.077 177.704 153.792 177.704 154.7V155.008H180.095ZM199.316 148.082V148.407C198.924 148.46 198.622 148.574 198.411 148.75C198.118 148.996 197.655 149.667 197.022 150.763L194.438 155.078V157.961C194.438 158.576 194.471 158.96 194.535 159.112C194.6 159.259 194.726 159.391 194.913 159.508C195.106 159.619 195.361 159.675 195.678 159.675H196.346V160H189.657V159.675H190.281C190.633 159.675 190.911 159.613 191.116 159.49C191.269 159.408 191.389 159.268 191.477 159.068C191.541 158.928 191.573 158.559 191.573 157.961V155.57L188.77 150.464C188.213 149.456 187.82 148.864 187.592 148.688C187.363 148.507 187.059 148.413 186.678 148.407V148.082H192.391V148.407H192.136C191.79 148.407 191.547 148.457 191.406 148.557C191.271 148.656 191.204 148.762 191.204 148.873C191.204 149.084 191.438 149.614 191.907 150.464L194.061 154.41L196.205 150.815C196.738 149.937 197.005 149.354 197.005 149.066C197.005 148.908 196.929 148.776 196.776 148.671C196.577 148.524 196.211 148.437 195.678 148.407V148.082H199.316ZM202.006 151.536C202.721 151.536 203.386 151.721 204.001 152.09C204.616 152.459 205.082 152.983 205.398 153.663C205.721 154.343 205.882 155.087 205.882 155.896C205.882 157.062 205.586 158.037 204.994 158.822C204.279 159.771 203.292 160.246 202.032 160.246C200.796 160.246 199.844 159.812 199.176 158.945C198.508 158.078 198.174 157.073 198.174 155.931C198.174 154.753 198.514 153.728 199.193 152.854C199.879 151.976 200.816 151.536 202.006 151.536ZM202.041 152.16C201.742 152.16 201.484 152.274 201.268 152.503C201.057 152.726 200.916 153.171 200.846 153.839C200.781 154.501 200.749 155.424 200.749 156.607C200.749 157.234 200.79 157.82 200.872 158.365C200.937 158.781 201.074 159.098 201.285 159.314C201.496 159.531 201.736 159.64 202.006 159.64C202.27 159.64 202.489 159.566 202.665 159.42C202.894 159.221 203.046 158.942 203.122 158.585C203.239 158.028 203.298 156.903 203.298 155.21C203.298 154.214 203.242 153.531 203.131 153.162C203.02 152.787 202.855 152.515 202.639 152.345C202.486 152.222 202.287 152.16 202.041 152.16ZM215.066 151.782V158.216C215.066 158.843 215.125 159.235 215.242 159.394C215.359 159.546 215.597 159.643 215.954 159.684V160H212.605V158.901C212.213 159.37 211.82 159.713 211.428 159.93C211.035 160.141 210.596 160.246 210.109 160.246C209.646 160.246 209.233 160.105 208.87 159.824C208.513 159.537 208.272 159.203 208.149 158.822C208.026 158.441 207.965 157.776 207.965 156.827V153.566C207.965 152.945 207.906 152.559 207.789 152.406C207.678 152.254 207.44 152.154 207.077 152.107V151.782H210.426V157.398C210.426 157.984 210.452 158.362 210.505 158.532C210.563 158.702 210.651 158.831 210.769 158.919C210.892 159.007 211.032 159.051 211.19 159.051C211.401 159.051 211.592 158.995 211.762 158.884C211.996 158.731 212.277 158.424 212.605 157.961V153.566C212.605 152.945 212.547 152.559 212.43 152.406C212.318 152.254 212.081 152.154 211.718 152.107V151.782H215.066ZM220.56 151.782V153.646C221.104 152.796 221.582 152.233 221.992 151.958C222.402 151.677 222.798 151.536 223.179 151.536C223.507 151.536 223.768 151.639 223.961 151.844C224.16 152.043 224.26 152.327 224.26 152.696C224.26 153.089 224.163 153.394 223.97 153.61C223.782 153.827 223.554 153.936 223.284 153.936C222.974 153.936 222.704 153.836 222.476 153.637C222.247 153.438 222.112 153.326 222.071 153.303C222.013 153.268 221.945 153.25 221.869 153.25C221.699 153.25 221.538 153.314 221.386 153.443C221.146 153.643 220.964 153.927 220.841 154.296C220.653 154.864 220.56 155.491 220.56 156.177V158.066L220.568 158.559C220.568 158.893 220.589 159.106 220.63 159.2C220.7 159.358 220.803 159.476 220.938 159.552C221.078 159.622 221.312 159.666 221.641 159.684V160H217.202V159.684C217.56 159.654 217.8 159.558 217.923 159.394C218.052 159.224 218.116 158.781 218.116 158.066V153.522C218.116 153.054 218.093 152.755 218.046 152.626C217.987 152.462 217.902 152.342 217.791 152.266C217.68 152.189 217.483 152.137 217.202 152.107V151.782H220.56ZM236.274 155.597H231.766C231.818 156.687 232.108 157.548 232.636 158.181C233.04 158.667 233.526 158.91 234.095 158.91C234.446 158.91 234.766 158.813 235.053 158.62C235.34 158.421 235.647 158.066 235.976 157.557L236.274 157.75C235.829 158.658 235.337 159.303 234.798 159.684C234.259 160.059 233.635 160.246 232.926 160.246C231.707 160.246 230.784 159.777 230.157 158.84C229.653 158.084 229.401 157.146 229.401 156.027C229.401 154.656 229.771 153.566 230.509 152.758C231.253 151.943 232.123 151.536 233.119 151.536C233.951 151.536 234.672 151.879 235.281 152.564C235.896 153.244 236.228 154.255 236.274 155.597ZM234.112 155.008C234.112 154.064 234.06 153.417 233.954 153.065C233.854 152.714 233.696 152.447 233.479 152.266C233.356 152.16 233.192 152.107 232.987 152.107C232.683 152.107 232.434 152.257 232.24 152.556C231.895 153.077 231.722 153.792 231.722 154.7V155.008H234.112ZM240.722 151.782V152.863C241.173 152.371 241.589 152.028 241.97 151.835C242.356 151.636 242.778 151.536 243.235 151.536C243.763 151.536 244.205 151.659 244.562 151.905C244.92 152.151 245.195 152.526 245.389 153.03C245.857 152.503 246.306 152.122 246.733 151.888C247.167 151.653 247.618 151.536 248.087 151.536C248.655 151.536 249.106 151.668 249.44 151.932C249.78 152.189 250.015 152.521 250.144 152.925C250.278 153.323 250.346 153.962 250.346 154.841V158.207C250.346 158.84 250.401 159.232 250.513 159.385C250.63 159.537 250.87 159.637 251.233 159.684V160H246.988V159.684C247.322 159.654 247.568 159.525 247.727 159.297C247.832 159.139 247.885 158.775 247.885 158.207V154.674C247.885 153.941 247.855 153.476 247.797 153.276C247.738 153.077 247.645 152.931 247.516 152.837C247.393 152.737 247.246 152.688 247.076 152.688C246.824 152.688 246.569 152.781 246.312 152.969C246.054 153.15 245.793 153.426 245.529 153.795V158.207C245.529 158.799 245.579 159.171 245.679 159.323C245.813 159.54 246.071 159.66 246.452 159.684V160H242.198V159.684C242.427 159.672 242.605 159.616 242.734 159.517C242.869 159.411 242.957 159.288 242.998 159.147C243.045 159.001 243.068 158.688 243.068 158.207V154.674C243.068 153.93 243.039 153.464 242.98 153.276C242.922 153.089 242.822 152.942 242.682 152.837C242.547 152.731 242.4 152.679 242.242 152.679C242.008 152.679 241.794 152.74 241.601 152.863C241.325 153.045 241.032 153.355 240.722 153.795V158.207C240.722 158.787 240.777 159.171 240.889 159.358C241.006 159.54 241.246 159.648 241.609 159.684V160H237.373V159.684C237.719 159.648 237.965 159.537 238.111 159.35C238.211 159.221 238.261 158.84 238.261 158.207V153.566C238.261 152.945 238.202 152.559 238.085 152.406C237.974 152.254 237.736 152.154 237.373 152.107V151.782H240.722ZM256.841 158.787C255.839 159.672 254.939 160.114 254.143 160.114C253.674 160.114 253.284 159.962 252.974 159.657C252.663 159.347 252.508 158.96 252.508 158.497C252.508 157.87 252.777 157.308 253.316 156.81C253.855 156.306 255.03 155.638 256.841 154.806V153.979C256.841 153.358 256.806 152.969 256.735 152.811C256.671 152.646 256.545 152.506 256.357 152.389C256.17 152.266 255.959 152.204 255.725 152.204C255.344 152.204 255.03 152.289 254.784 152.459C254.632 152.564 254.556 152.688 254.556 152.828C254.556 152.951 254.638 153.104 254.802 153.285C255.024 153.537 255.136 153.78 255.136 154.015C255.136 154.302 255.027 154.548 254.811 154.753C254.6 154.952 254.321 155.052 253.976 155.052C253.606 155.052 253.296 154.94 253.044 154.718C252.798 154.495 252.675 154.234 252.675 153.936C252.675 153.514 252.842 153.112 253.176 152.731C253.51 152.345 253.976 152.049 254.573 151.844C255.171 151.639 255.792 151.536 256.437 151.536C257.216 151.536 257.831 151.703 258.282 152.037C258.739 152.365 259.035 152.723 259.17 153.109C259.252 153.355 259.293 153.921 259.293 154.806V157.996C259.293 158.371 259.308 158.608 259.337 158.708C259.366 158.802 259.41 158.872 259.469 158.919C259.527 158.966 259.595 158.989 259.671 158.989C259.823 158.989 259.979 158.881 260.137 158.664L260.4 158.875C260.107 159.309 259.803 159.625 259.486 159.824C259.176 160.018 258.821 160.114 258.423 160.114C257.954 160.114 257.588 160.006 257.324 159.789C257.061 159.566 256.899 159.232 256.841 158.787ZM256.841 158.146V155.395C256.132 155.811 255.604 156.256 255.259 156.73C255.03 157.047 254.916 157.366 254.916 157.688C254.916 157.958 255.013 158.195 255.206 158.4C255.353 158.559 255.558 158.638 255.821 158.638C256.114 158.638 256.454 158.474 256.841 158.146ZM263.283 147.801C263.664 147.801 263.986 147.936 264.25 148.205C264.514 148.469 264.646 148.788 264.646 149.163C264.646 149.538 264.511 149.857 264.241 150.121C263.978 150.385 263.658 150.517 263.283 150.517C262.908 150.517 262.589 150.385 262.325 150.121C262.062 149.857 261.93 149.538 261.93 149.163C261.93 148.788 262.062 148.469 262.325 148.205C262.589 147.936 262.908 147.801 263.283 147.801ZM264.514 151.782V158.295C264.514 158.875 264.581 159.247 264.716 159.411C264.851 159.569 265.114 159.66 265.507 159.684V160H261.068V159.684C261.432 159.672 261.701 159.566 261.877 159.367C261.994 159.232 262.053 158.875 262.053 158.295V153.496C262.053 152.916 261.985 152.547 261.851 152.389C261.716 152.225 261.455 152.131 261.068 152.107V151.782H264.514ZM269.532 148.082V158.295C269.532 158.875 269.6 159.247 269.734 159.411C269.869 159.569 270.133 159.66 270.525 159.684V160H266.087V159.684C266.45 159.672 266.72 159.566 266.896 159.367C267.013 159.232 267.071 158.875 267.071 158.295V149.787C267.071 149.213 267.004 148.847 266.869 148.688C266.734 148.524 266.474 148.431 266.087 148.407V148.082H269.532Z" fill="#D9D9D9"/>
<rect x="595" y="118" width="220" height="71" rx="15" fill="black"/>
<path d="M649.895 146.455L650.002 150.869H649.602C649.413 149.762 648.947 148.874 648.205 148.203C647.469 147.526 646.672 147.188 645.812 147.188C645.148 147.188 644.621 147.367 644.23 147.725C643.846 148.076 643.654 148.483 643.654 148.945C643.654 149.238 643.723 149.499 643.859 149.727C644.048 150.033 644.351 150.335 644.768 150.635C645.074 150.85 645.78 151.23 646.887 151.777C648.436 152.539 649.481 153.258 650.021 153.936C650.555 154.613 650.822 155.387 650.822 156.26C650.822 157.367 650.389 158.32 649.523 159.121C648.664 159.915 647.57 160.312 646.242 160.312C645.826 160.312 645.432 160.27 645.061 160.186C644.689 160.101 644.224 159.941 643.664 159.707C643.352 159.577 643.094 159.512 642.893 159.512C642.723 159.512 642.544 159.577 642.355 159.707C642.167 159.837 642.014 160.036 641.896 160.303H641.535V155.303H641.896C642.183 156.709 642.733 157.783 643.547 158.525C644.367 159.261 645.249 159.629 646.193 159.629C646.923 159.629 647.502 159.43 647.932 159.033C648.368 158.636 648.586 158.174 648.586 157.646C648.586 157.334 648.501 157.031 648.332 156.738C648.169 156.445 647.919 156.169 647.58 155.908C647.242 155.641 646.643 155.296 645.783 154.873C644.579 154.281 643.713 153.776 643.186 153.359C642.658 152.943 642.251 152.477 641.965 151.963C641.685 151.449 641.545 150.882 641.545 150.264C641.545 149.209 641.932 148.311 642.707 147.568C643.482 146.826 644.458 146.455 645.637 146.455C646.066 146.455 646.483 146.507 646.887 146.611C647.193 146.689 647.564 146.836 648 147.051C648.443 147.259 648.752 147.363 648.928 147.363C649.097 147.363 649.23 147.311 649.328 147.207C649.426 147.103 649.517 146.852 649.602 146.455H649.895ZM661.125 150.869V158.018C661.125 158.714 661.19 159.15 661.32 159.326C661.451 159.495 661.714 159.603 662.111 159.648V160H658.391V158.779C657.954 159.3 657.518 159.681 657.082 159.922C656.646 160.156 656.158 160.273 655.617 160.273C655.103 160.273 654.644 160.117 654.24 159.805C653.843 159.486 653.576 159.115 653.439 158.691C653.303 158.268 653.234 157.529 653.234 156.475V152.852C653.234 152.161 653.169 151.732 653.039 151.562C652.915 151.393 652.652 151.283 652.248 151.23V150.869H655.969V157.109C655.969 157.76 655.998 158.18 656.057 158.369C656.122 158.558 656.219 158.701 656.35 158.799C656.486 158.896 656.643 158.945 656.818 158.945C657.053 158.945 657.264 158.883 657.453 158.76C657.714 158.59 658.026 158.249 658.391 157.734V152.852C658.391 152.161 658.326 151.732 658.195 151.562C658.072 151.393 657.808 151.283 657.404 151.23V150.869H661.125ZM666.975 146.758V151.787C667.743 150.993 668.583 150.596 669.494 150.596C670.119 150.596 670.708 150.781 671.262 151.152C671.815 151.517 672.248 152.038 672.561 152.715C672.873 153.392 673.029 154.173 673.029 155.059C673.029 156.055 672.831 156.96 672.434 157.773C672.036 158.587 671.506 159.209 670.842 159.639C670.178 160.062 669.419 160.273 668.566 160.273C668.072 160.273 667.632 160.195 667.248 160.039C666.864 159.883 666.486 159.629 666.115 159.277L664.602 160.264H664.27V148.652C664.27 148.125 664.247 147.799 664.201 147.676C664.136 147.493 664.032 147.36 663.889 147.275C663.752 147.184 663.518 147.132 663.186 147.119V146.758H666.975ZM666.975 152.656V156.719C666.975 157.546 666.994 158.073 667.033 158.301C667.098 158.685 667.255 158.997 667.502 159.238C667.749 159.473 668.065 159.59 668.449 159.59C668.781 159.59 669.064 159.495 669.299 159.307C669.54 159.118 669.738 158.743 669.895 158.184C670.057 157.624 670.139 156.615 670.139 155.156C670.139 153.757 669.963 152.796 669.611 152.275C669.357 151.898 669.016 151.709 668.586 151.709C668.026 151.709 667.489 152.025 666.975 152.656ZM680.344 150.615L680.49 153.73H680.158C679.761 152.806 679.348 152.174 678.918 151.836C678.495 151.497 678.072 151.328 677.648 151.328C677.382 151.328 677.154 151.419 676.965 151.602C676.776 151.777 676.682 151.982 676.682 152.217C676.682 152.393 676.747 152.562 676.877 152.725C677.085 152.992 677.668 153.451 678.625 154.102C679.582 154.746 680.21 155.296 680.51 155.752C680.816 156.201 680.969 156.706 680.969 157.266C680.969 157.773 680.842 158.271 680.588 158.76C680.334 159.248 679.976 159.622 679.514 159.883C679.051 160.143 678.54 160.273 677.98 160.273C677.544 160.273 676.962 160.137 676.232 159.863C676.037 159.792 675.904 159.756 675.832 159.756C675.617 159.756 675.438 159.919 675.295 160.244H674.973L674.816 156.963H675.148C675.441 157.822 675.842 158.467 676.35 158.896C676.864 159.326 677.349 159.541 677.805 159.541C678.117 159.541 678.371 159.447 678.566 159.258C678.768 159.062 678.869 158.828 678.869 158.555C678.869 158.242 678.771 157.972 678.576 157.744C678.381 157.516 677.945 157.171 677.268 156.709C676.271 156.019 675.627 155.492 675.334 155.127C674.904 154.593 674.689 154.004 674.689 153.359C674.689 152.656 674.93 152.021 675.412 151.455C675.9 150.882 676.604 150.596 677.521 150.596C678.016 150.596 678.495 150.716 678.957 150.957C679.133 151.055 679.276 151.104 679.387 151.104C679.504 151.104 679.598 151.081 679.67 151.035C679.742 150.983 679.855 150.843 680.012 150.615H680.344ZM689.816 157.646L690.119 157.881C689.689 158.688 689.152 159.29 688.508 159.688C687.87 160.078 687.189 160.273 686.467 160.273C685.249 160.273 684.276 159.814 683.547 158.896C682.818 157.979 682.453 156.875 682.453 155.586C682.453 154.342 682.785 153.249 683.449 152.305C684.25 151.165 685.354 150.596 686.76 150.596C687.704 150.596 688.452 150.833 689.006 151.309C689.566 151.784 689.846 152.314 689.846 152.9C689.846 153.271 689.732 153.568 689.504 153.789C689.283 154.01 688.99 154.121 688.625 154.121C688.241 154.121 687.922 153.994 687.668 153.74C687.421 153.486 687.268 153.034 687.209 152.383C687.17 151.973 687.076 151.686 686.926 151.523C686.776 151.361 686.6 151.279 686.398 151.279C686.086 151.279 685.819 151.445 685.598 151.777C685.259 152.279 685.09 153.047 685.09 154.082C685.09 154.941 685.227 155.765 685.5 156.553C685.773 157.334 686.148 157.917 686.623 158.301C686.981 158.581 687.404 158.721 687.893 158.721C688.212 158.721 688.514 158.646 688.801 158.496C689.087 158.346 689.426 158.063 689.816 157.646ZM695.041 150.869V152.939C695.646 151.995 696.177 151.37 696.633 151.064C697.089 150.752 697.528 150.596 697.951 150.596C698.316 150.596 698.605 150.71 698.82 150.938C699.042 151.159 699.152 151.475 699.152 151.885C699.152 152.321 699.045 152.66 698.83 152.9C698.622 153.141 698.368 153.262 698.068 153.262C697.723 153.262 697.424 153.151 697.17 152.93C696.916 152.708 696.766 152.585 696.721 152.559C696.656 152.52 696.581 152.5 696.496 152.5C696.307 152.5 696.128 152.572 695.959 152.715C695.692 152.936 695.49 153.252 695.354 153.662C695.145 154.294 695.041 154.99 695.041 155.752V157.852L695.051 158.398C695.051 158.77 695.074 159.007 695.119 159.111C695.197 159.287 695.311 159.417 695.461 159.502C695.617 159.58 695.878 159.629 696.242 159.648V160H691.311V159.648C691.708 159.616 691.975 159.508 692.111 159.326C692.255 159.137 692.326 158.646 692.326 157.852V152.803C692.326 152.282 692.3 151.95 692.248 151.807C692.183 151.624 692.089 151.491 691.965 151.406C691.841 151.322 691.623 151.263 691.311 151.23V150.869H695.041ZM702.336 146.445C702.759 146.445 703.117 146.595 703.41 146.895C703.703 147.188 703.85 147.542 703.85 147.959C703.85 148.376 703.7 148.73 703.4 149.023C703.107 149.316 702.753 149.463 702.336 149.463C701.919 149.463 701.564 149.316 701.271 149.023C700.979 148.73 700.832 148.376 700.832 147.959C700.832 147.542 700.979 147.188 701.271 146.895C701.564 146.595 701.919 146.445 702.336 146.445ZM703.703 150.869V158.105C703.703 158.75 703.778 159.163 703.928 159.346C704.077 159.521 704.37 159.622 704.807 159.648V160H699.875V159.648C700.279 159.635 700.578 159.518 700.773 159.297C700.904 159.147 700.969 158.75 700.969 158.105V152.773C700.969 152.129 700.894 151.719 700.744 151.543C700.594 151.361 700.305 151.257 699.875 151.23V150.869H703.703ZM709.24 146.758V151.787C710.008 150.993 710.848 150.596 711.76 150.596C712.385 150.596 712.974 150.781 713.527 151.152C714.081 151.517 714.514 152.038 714.826 152.715C715.139 153.392 715.295 154.173 715.295 155.059C715.295 156.055 715.096 156.96 714.699 157.773C714.302 158.587 713.771 159.209 713.107 159.639C712.443 160.062 711.685 160.273 710.832 160.273C710.337 160.273 709.898 160.195 709.514 160.039C709.13 159.883 708.752 159.629 708.381 159.277L706.867 160.264H706.535V148.652C706.535 148.125 706.512 147.799 706.467 147.676C706.402 147.493 706.298 147.36 706.154 147.275C706.018 147.184 705.783 147.132 705.451 147.119V146.758H709.24ZM709.24 152.656V156.719C709.24 157.546 709.26 158.073 709.299 158.301C709.364 158.685 709.52 158.997 709.768 159.238C710.015 159.473 710.331 159.59 710.715 159.59C711.047 159.59 711.33 159.495 711.564 159.307C711.805 159.118 712.004 158.743 712.16 158.184C712.323 157.624 712.404 156.615 712.404 155.156C712.404 153.757 712.229 152.796 711.877 152.275C711.623 151.898 711.281 151.709 710.852 151.709C710.292 151.709 709.755 152.025 709.24 152.656ZM724.572 155.107H719.562C719.621 156.318 719.943 157.275 720.529 157.979C720.979 158.519 721.519 158.789 722.15 158.789C722.541 158.789 722.896 158.682 723.215 158.467C723.534 158.245 723.876 157.852 724.24 157.285L724.572 157.5C724.077 158.509 723.531 159.225 722.932 159.648C722.333 160.065 721.639 160.273 720.852 160.273C719.497 160.273 718.472 159.753 717.775 158.711C717.215 157.871 716.936 156.829 716.936 155.586C716.936 154.062 717.346 152.852 718.166 151.953C718.993 151.048 719.96 150.596 721.066 150.596C721.991 150.596 722.792 150.977 723.469 151.738C724.152 152.493 724.52 153.617 724.572 155.107ZM722.17 154.453C722.17 153.405 722.111 152.686 721.994 152.295C721.883 151.904 721.708 151.608 721.467 151.406C721.33 151.289 721.148 151.23 720.92 151.23C720.581 151.23 720.305 151.396 720.09 151.729C719.706 152.308 719.514 153.102 719.514 154.111V154.453H722.17ZM735.031 146.758L741.564 154.971V149.277C741.564 148.483 741.451 147.946 741.223 147.666C740.91 147.288 740.386 147.106 739.65 147.119V146.758H744.025V147.119C743.465 147.191 743.088 147.285 742.893 147.402C742.704 147.513 742.554 147.699 742.443 147.959C742.339 148.213 742.287 148.652 742.287 149.277V160.303H741.955L733 149.277V157.695C733 158.457 733.173 158.971 733.518 159.238C733.869 159.505 734.27 159.639 734.719 159.639H735.031V160H730.334V159.639C731.063 159.632 731.571 159.482 731.857 159.189C732.144 158.896 732.287 158.398 732.287 157.695V148.35L732.004 147.998C731.724 147.646 731.477 147.415 731.262 147.305C731.047 147.194 730.738 147.132 730.334 147.119V146.758H735.031ZM749.484 150.596C750.279 150.596 751.018 150.801 751.701 151.211C752.385 151.621 752.902 152.204 753.254 152.959C753.612 153.714 753.791 154.541 753.791 155.439C753.791 156.735 753.462 157.819 752.805 158.691C752.01 159.746 750.913 160.273 749.514 160.273C748.14 160.273 747.082 159.792 746.34 158.828C745.598 157.865 745.227 156.748 745.227 155.479C745.227 154.17 745.604 153.031 746.359 152.061C747.121 151.084 748.163 150.596 749.484 150.596ZM749.523 151.289C749.191 151.289 748.905 151.416 748.664 151.67C748.43 151.917 748.273 152.412 748.195 153.154C748.124 153.89 748.088 154.915 748.088 156.23C748.088 156.927 748.133 157.578 748.225 158.184C748.296 158.646 748.449 158.997 748.684 159.238C748.918 159.479 749.185 159.6 749.484 159.6C749.777 159.6 750.021 159.518 750.217 159.355C750.471 159.134 750.64 158.825 750.725 158.428C750.855 157.809 750.92 156.559 750.92 154.678C750.92 153.571 750.858 152.812 750.734 152.402C750.611 151.986 750.428 151.683 750.188 151.494C750.018 151.357 749.797 151.289 749.523 151.289ZM764.23 160.273L761.73 153.574L759.279 160.273H758.771L756.34 153.652C755.975 152.643 755.666 151.986 755.412 151.68C755.249 151.471 755.002 151.322 754.67 151.23V150.869H759.279V151.23C758.967 151.23 758.752 151.276 758.635 151.367C758.518 151.458 758.459 151.562 758.459 151.68C758.459 151.79 758.563 152.122 758.771 152.676L760.109 156.24L761.398 152.676L761.301 152.441C761.105 151.953 760.933 151.644 760.783 151.514C760.64 151.377 760.415 151.283 760.109 151.23V150.869H764.787V151.23C764.423 151.25 764.191 151.302 764.094 151.387C763.996 151.465 763.947 151.579 763.947 151.729C763.947 151.872 764.042 152.188 764.23 152.676L765.52 156.24L766.691 152.959C766.861 152.49 766.945 152.171 766.945 152.002C766.945 151.748 766.883 151.562 766.76 151.445C766.636 151.328 766.395 151.257 766.037 151.23V150.869H768.742V151.23C768.443 151.27 768.205 151.377 768.029 151.553C767.854 151.722 767.626 152.21 767.346 153.018L764.787 160.273H764.23Z" fill="white"/>
</svg>
