<svg width="1223" height="154" viewBox="0 0 1223 154" fill="none" xmlns="http://www.w3.org/2000/svg">
<rect width="1223" height="154" rx="25" fill="white" fill-opacity="0.45"/>
<rect x="47" y="30" width="315" height="93" rx="25" fill="white"/>
<g opacity="0.7">
<path d="M95.204 79C94.4383 79.5883 94 80.2714 94 81C94 83.2091 98.0294 85 103 85C107.971 85 112 83.2091 112 81C112 80.2714 111.562 79.5883 110.796 79M103 70.5V75.5M100.5 73H105.5M109 73.2222C109 76.6587 106.314 79.4444 103 81C99.6863 79.4444 97 76.6587 97 73.2222C97 69.7858 99.6863 67 103 67C106.314 67 109 69.7858 109 73.2222Z" stroke="black" stroke-opacity="0.8" stroke-width="1.5" stroke-linecap="round" stroke-linejoin="round"/>
<path d="M140.152 78.4219L139.555 84H125.445V83.5664H125.973C126.434 83.5664 126.805 83.4844 127.086 83.3203C127.289 83.2109 127.445 83.0234 127.555 82.7578C127.641 82.5703 127.684 82.0781 127.684 81.2812V70.8281C127.684 70.0156 127.641 69.5078 127.555 69.3047C127.469 69.1016 127.293 68.9258 127.027 68.7773C126.77 68.6211 126.418 68.543 125.973 68.543H125.445V68.1094H133.918V68.543H133.227C132.766 68.543 132.395 68.625 132.113 68.7891C131.91 68.8984 131.75 69.0859 131.633 69.3516C131.547 69.5391 131.504 70.0312 131.504 70.8281V80.9531C131.504 81.7656 131.551 82.2852 131.645 82.5117C131.738 82.7305 131.922 82.8945 132.195 83.0039C132.391 83.0742 132.863 83.1094 133.613 83.1094H134.938C135.781 83.1094 136.484 82.9609 137.047 82.6641C137.609 82.3672 138.094 81.8984 138.5 81.2578C138.914 80.6172 139.305 79.6719 139.672 78.4219H140.152ZM146.984 72.7148C147.938 72.7148 148.824 72.9609 149.645 73.4531C150.465 73.9453 151.086 74.6445 151.508 75.5508C151.938 76.457 152.152 77.4492 152.152 78.5273C152.152 80.082 151.758 81.3828 150.969 82.4297C150.016 83.6953 148.699 84.3281 147.02 84.3281C145.371 84.3281 144.102 83.75 143.211 82.5938C142.32 81.4375 141.875 80.0977 141.875 78.5742C141.875 77.0039 142.328 75.6367 143.234 74.4727C144.148 73.3008 145.398 72.7148 146.984 72.7148ZM147.031 73.5469C146.633 73.5469 146.289 73.6992 146 74.0039C145.719 74.3008 145.531 74.8945 145.438 75.7852C145.352 76.668 145.309 77.8984 145.309 79.4766C145.309 80.3125 145.363 81.0938 145.473 81.8203C145.559 82.375 145.742 82.7969 146.023 83.0859C146.305 83.375 146.625 83.5195 146.984 83.5195C147.336 83.5195 147.629 83.4219 147.863 83.2266C148.168 82.9609 148.371 82.5898 148.473 82.1133C148.629 81.3711 148.707 79.8711 148.707 77.6133C148.707 76.2852 148.633 75.375 148.484 74.8828C148.336 74.3828 148.117 74.0195 147.828 73.793C147.625 73.6289 147.359 73.5469 147.031 73.5469ZM162.758 81.1758L163.121 81.457C162.605 82.4258 161.961 83.1484 161.188 83.625C160.422 84.0938 159.605 84.3281 158.738 84.3281C157.277 84.3281 156.109 83.7773 155.234 82.6758C154.359 81.5742 153.922 80.25 153.922 78.7031C153.922 77.2109 154.32 75.8984 155.117 74.7656C156.078 73.3984 157.402 72.7148 159.09 72.7148C160.223 72.7148 161.121 73 161.785 73.5703C162.457 74.1406 162.793 74.7773 162.793 75.4805C162.793 75.9258 162.656 76.2812 162.383 76.5469C162.117 76.8125 161.766 76.9453 161.328 76.9453C160.867 76.9453 160.484 76.793 160.18 76.4883C159.883 76.1836 159.699 75.6406 159.629 74.8594C159.582 74.3672 159.469 74.0234 159.289 73.8281C159.109 73.6328 158.898 73.5352 158.656 73.5352C158.281 73.5352 157.961 73.7344 157.695 74.1328C157.289 74.7344 157.086 75.6562 157.086 76.8984C157.086 77.9297 157.25 78.918 157.578 79.8633C157.906 80.8008 158.355 81.5 158.926 81.9609C159.355 82.2969 159.863 82.4648 160.449 82.4648C160.832 82.4648 161.195 82.375 161.539 82.1953C161.883 82.0156 162.289 81.6758 162.758 81.1758ZM170.527 82.3828C169.191 83.5625 167.992 84.1523 166.93 84.1523C166.305 84.1523 165.785 83.9492 165.371 83.543C164.957 83.1289 164.75 82.6133 164.75 81.9961C164.75 81.1602 165.109 80.4102 165.828 79.7461C166.547 79.0742 168.113 78.1836 170.527 77.0742V75.9727C170.527 75.1445 170.48 74.625 170.387 74.4141C170.301 74.1953 170.133 74.0078 169.883 73.8516C169.633 73.6875 169.352 73.6055 169.039 73.6055C168.531 73.6055 168.113 73.7188 167.785 73.9453C167.582 74.0859 167.48 74.25 167.48 74.4375C167.48 74.6016 167.59 74.8047 167.809 75.0469C168.105 75.3828 168.254 75.707 168.254 76.0195C168.254 76.4023 168.109 76.7305 167.82 77.0039C167.539 77.2695 167.168 77.4023 166.707 77.4023C166.215 77.4023 165.801 77.2539 165.465 76.957C165.137 76.6602 164.973 76.3125 164.973 75.9141C164.973 75.3516 165.195 74.8164 165.641 74.3086C166.086 73.793 166.707 73.3984 167.504 73.125C168.301 72.8516 169.129 72.7148 169.988 72.7148C171.027 72.7148 171.848 72.9375 172.449 73.3828C173.059 73.8203 173.453 74.2969 173.633 74.8125C173.742 75.1406 173.797 75.8945 173.797 77.0742V81.3281C173.797 81.8281 173.816 82.1445 173.855 82.2773C173.895 82.4023 173.953 82.4961 174.031 82.5586C174.109 82.6211 174.199 82.6523 174.301 82.6523C174.504 82.6523 174.711 82.5078 174.922 82.2188L175.273 82.5C174.883 83.0781 174.477 83.5 174.055 83.7656C173.641 84.0234 173.168 84.1523 172.637 84.1523C172.012 84.1523 171.523 84.0078 171.172 83.7188C170.82 83.4219 170.605 82.9766 170.527 82.3828ZM170.527 81.5273V77.8594C169.582 78.4141 168.879 79.0078 168.418 79.6406C168.113 80.0625 167.961 80.4883 167.961 80.918C167.961 81.2773 168.09 81.5938 168.348 81.8672C168.543 82.0781 168.816 82.1836 169.168 82.1836C169.559 82.1836 170.012 81.9648 170.527 81.5273ZM180.828 69.0352V73.043H183.43V74.2031H180.828V80.9648C180.828 81.5977 180.855 82.0078 180.91 82.1953C180.973 82.375 181.078 82.5234 181.227 82.6406C181.375 82.75 181.512 82.8047 181.637 82.8047C182.145 82.8047 182.625 82.418 183.078 81.6445L183.43 81.9023C182.797 83.4023 181.77 84.1523 180.348 84.1523C179.652 84.1523 179.062 83.9609 178.578 83.5781C178.102 83.1875 177.797 82.7539 177.664 82.2773C177.586 82.0117 177.547 81.293 177.547 80.1211V74.2031H176.117V73.793C177.102 73.0977 177.938 72.3672 178.625 71.6016C179.32 70.8359 179.926 69.9805 180.441 69.0352H180.828ZM187.109 67.7344C187.617 67.7344 188.047 67.9141 188.398 68.2734C188.75 68.625 188.926 69.0508 188.926 69.5508C188.926 70.0508 188.746 70.4766 188.387 70.8281C188.035 71.1797 187.609 71.3555 187.109 71.3555C186.609 71.3555 186.184 71.1797 185.832 70.8281C185.48 70.4766 185.305 70.0508 185.305 69.5508C185.305 69.0508 185.48 68.625 185.832 68.2734C186.184 67.9141 186.609 67.7344 187.109 67.7344ZM188.75 73.043V81.7266C188.75 82.5 188.84 82.9961 189.02 83.2148C189.199 83.4258 189.551 83.5469 190.074 83.5781V84H184.156V83.5781C184.641 83.5625 185 83.4219 185.234 83.1562C185.391 82.9766 185.469 82.5 185.469 81.7266V75.3281C185.469 74.5547 185.379 74.0625 185.199 73.8516C185.02 73.6328 184.672 73.5078 184.156 73.4766V73.043H188.75ZM196.32 72.7148C197.273 72.7148 198.16 72.9609 198.98 73.4531C199.801 73.9453 200.422 74.6445 200.844 75.5508C201.273 76.457 201.488 77.4492 201.488 78.5273C201.488 80.082 201.094 81.3828 200.305 82.4297C199.352 83.6953 198.035 84.3281 196.355 84.3281C194.707 84.3281 193.438 83.75 192.547 82.5938C191.656 81.4375 191.211 80.0977 191.211 78.5742C191.211 77.0039 191.664 75.6367 192.57 74.4727C193.484 73.3008 194.734 72.7148 196.32 72.7148ZM196.367 73.5469C195.969 73.5469 195.625 73.6992 195.336 74.0039C195.055 74.3008 194.867 74.8945 194.773 75.7852C194.688 76.668 194.645 77.8984 194.645 79.4766C194.645 80.3125 194.699 81.0938 194.809 81.8203C194.895 82.375 195.078 82.7969 195.359 83.0859C195.641 83.375 195.961 83.5195 196.32 83.5195C196.672 83.5195 196.965 83.4219 197.199 83.2266C197.504 82.9609 197.707 82.5898 197.809 82.1133C197.965 81.3711 198.043 79.8711 198.043 77.6133C198.043 76.2852 197.969 75.375 197.82 74.8828C197.672 74.3828 197.453 74.0195 197.164 73.793C196.961 73.6289 196.695 73.5469 196.367 73.5469ZM207.629 73.043V74.4609C208.191 73.8516 208.73 73.4102 209.246 73.1367C209.762 72.8555 210.316 72.7148 210.91 72.7148C211.621 72.7148 212.211 72.9141 212.68 73.3125C213.148 73.7031 213.461 74.1914 213.617 74.7773C213.742 75.2227 213.805 76.0781 213.805 77.3438V81.6094C213.805 82.4531 213.879 82.9805 214.027 83.1914C214.184 83.3945 214.504 83.5234 214.988 83.5781V84H209.445V83.5781C209.859 83.5234 210.156 83.3516 210.336 83.0625C210.461 82.8672 210.523 82.3828 210.523 81.6094V76.7344C210.523 75.8359 210.488 75.2695 210.418 75.0352C210.348 74.8008 210.227 74.6211 210.055 74.4961C209.891 74.3633 209.707 74.2969 209.504 74.2969C208.832 74.2969 208.207 74.7773 207.629 75.7383V81.6094C207.629 82.4297 207.703 82.9492 207.852 83.168C208.008 83.3867 208.293 83.5234 208.707 83.5781V84H203.164V83.5781C203.625 83.5312 203.953 83.3828 204.148 83.1328C204.281 82.9609 204.348 82.4531 204.348 81.6094V75.4219C204.348 74.5938 204.27 74.0781 204.113 73.875C203.965 73.6719 203.648 73.5391 203.164 73.4766V73.043H207.629Z" fill="black"/>
</g>
<rect x="412" y="30" width="221" height="93" rx="25" fill="white"/>
<g opacity="0.7">
<path d="M461.857 79L455.657 85.1999L453 82.5428M457 66.5V70.5M451 66.5V70.5M451 75.5H445.517M445.517 75.5C445.506 75.8208 445.5 76.154 445.5 76.5C445.5 81.4094 446.641 83.7517 450 84.6041M445.517 75.5C445.726 69.7928 447.846 68 454 68C459.368 68 461.667 69.364 462.305 73.5" stroke="black" stroke-opacity="0.8" stroke-width="1.5" stroke-linecap="round" stroke-linejoin="round"/>
<path d="M492.02 67.7461V73.2539H491.562C491.219 71.8164 490.578 70.7148 489.641 69.9492C488.703 69.1836 487.641 68.8008 486.453 68.8008C485.461 68.8008 484.551 69.0859 483.723 69.6562C482.895 70.2266 482.289 70.9727 481.906 71.8945C481.414 73.0742 481.168 74.3867 481.168 75.832C481.168 77.2539 481.348 78.5508 481.707 79.7227C482.066 80.8867 482.629 81.7695 483.395 82.3711C484.16 82.9648 485.152 83.2617 486.371 83.2617C487.371 83.2617 488.285 83.043 489.113 82.6055C489.949 82.168 490.828 81.4141 491.75 80.3438V81.7148C490.859 82.6445 489.93 83.3203 488.961 83.7422C488 84.1562 486.875 84.3633 485.586 84.3633C483.891 84.3633 482.383 84.0234 481.062 83.3438C479.75 82.6641 478.734 81.6875 478.016 80.4141C477.305 79.1406 476.949 77.7852 476.949 76.3477C476.949 74.832 477.344 73.3945 478.133 72.0352C478.93 70.6758 480 69.6211 481.344 68.8711C482.695 68.1211 484.129 67.7461 485.645 67.7461C486.762 67.7461 487.941 67.9883 489.184 68.4727C489.902 68.7539 490.359 68.8945 490.555 68.8945C490.805 68.8945 491.02 68.8047 491.199 68.625C491.387 68.4375 491.508 68.1445 491.562 67.7461H492.02ZM498.629 68.1094V74.4492C499.23 73.8164 499.781 73.3711 500.281 73.1133C500.781 72.8477 501.301 72.7148 501.84 72.7148C502.527 72.7148 503.113 72.9102 503.598 73.3008C504.09 73.6914 504.414 74.1523 504.57 74.6836C504.734 75.207 504.816 76.0938 504.816 77.3438V81.6211C504.816 82.457 504.895 82.9805 505.051 83.1914C505.207 83.3945 505.523 83.5234 506 83.5781V84H500.445V83.5781C500.836 83.5234 501.129 83.3672 501.324 83.1094C501.465 82.9062 501.535 82.4102 501.535 81.6211V76.7344C501.535 75.8281 501.5 75.2617 501.43 75.0352C501.359 74.8008 501.238 74.6211 501.066 74.4961C500.902 74.3633 500.715 74.2969 500.504 74.2969C500.191 74.2969 499.887 74.4062 499.59 74.625C499.293 74.8359 498.973 75.2109 498.629 75.75V81.6211C498.629 82.4023 498.688 82.8906 498.805 83.0859C498.953 83.3516 499.258 83.5156 499.719 83.5781V84H494.164V83.5781C494.625 83.5312 494.953 83.3828 495.148 83.1328C495.281 82.9609 495.348 82.457 495.348 81.6211V70.4883C495.348 69.6602 495.27 69.1445 495.113 68.9414C494.965 68.7383 494.648 68.6055 494.164 68.543V68.1094H498.629ZM516.793 78.1289H510.781C510.852 79.582 511.238 80.7305 511.941 81.5742C512.48 82.2227 513.129 82.5469 513.887 82.5469C514.355 82.5469 514.781 82.418 515.164 82.1602C515.547 81.8945 515.957 81.4219 516.395 80.7422L516.793 81C516.199 82.2109 515.543 83.0703 514.824 83.5781C514.105 84.0781 513.273 84.3281 512.328 84.3281C510.703 84.3281 509.473 83.7031 508.637 82.4531C507.965 81.4453 507.629 80.1953 507.629 78.7031C507.629 76.875 508.121 75.4219 509.105 74.3438C510.098 73.2578 511.258 72.7148 512.586 72.7148C513.695 72.7148 514.656 73.1719 515.469 74.0859C516.289 74.9922 516.73 76.3398 516.793 78.1289ZM513.91 77.3438C513.91 76.0859 513.84 75.2227 513.699 74.7539C513.566 74.2852 513.355 73.9297 513.066 73.6875C512.902 73.5469 512.684 73.4766 512.41 73.4766C512.004 73.4766 511.672 73.6758 511.414 74.0742C510.953 74.7695 510.723 75.7227 510.723 76.9336V77.3438H513.91ZM527.117 81.1758L527.48 81.457C526.965 82.4258 526.32 83.1484 525.547 83.625C524.781 84.0938 523.965 84.3281 523.098 84.3281C521.637 84.3281 520.469 83.7773 519.594 82.6758C518.719 81.5742 518.281 80.25 518.281 78.7031C518.281 77.2109 518.68 75.8984 519.477 74.7656C520.438 73.3984 521.762 72.7148 523.449 72.7148C524.582 72.7148 525.48 73 526.145 73.5703C526.816 74.1406 527.152 74.7773 527.152 75.4805C527.152 75.9258 527.016 76.2812 526.742 76.5469C526.477 76.8125 526.125 76.9453 525.688 76.9453C525.227 76.9453 524.844 76.793 524.539 76.4883C524.242 76.1836 524.059 75.6406 523.988 74.8594C523.941 74.3672 523.828 74.0234 523.648 73.8281C523.469 73.6328 523.258 73.5352 523.016 73.5352C522.641 73.5352 522.32 73.7344 522.055 74.1328C521.648 74.7344 521.445 75.6562 521.445 76.8984C521.445 77.9297 521.609 78.918 521.938 79.8633C522.266 80.8008 522.715 81.5 523.285 81.9609C523.715 82.2969 524.223 82.4648 524.809 82.4648C525.191 82.4648 525.555 82.375 525.898 82.1953C526.242 82.0156 526.648 81.6758 527.117 81.1758ZM533.293 68.1094V78.5625L535.836 76.0664C536.359 75.5586 536.684 75.1914 536.809 74.9648C536.941 74.7383 537.008 74.5195 537.008 74.3086C537.008 74.0977 536.922 73.9219 536.75 73.7812C536.578 73.6406 536.242 73.5391 535.742 73.4766V73.043H540.652V73.4766C540.184 73.5 539.773 73.6133 539.422 73.8164C539.07 74.0117 538.383 74.6094 537.359 75.6094L536.164 76.7812L538.742 80.5547C539.781 82.0859 540.398 82.9453 540.594 83.1328C540.859 83.3984 541.195 83.5469 541.602 83.5781V84H535.941V83.5781C536.191 83.5781 536.371 83.5312 536.48 83.4375C536.598 83.3438 536.656 83.2422 536.656 83.1328C536.656 82.9531 536.492 82.6211 536.164 82.1367L533.996 78.9609L533.293 79.6523V81.6211C533.293 82.457 533.371 82.9805 533.527 83.1914C533.684 83.3945 534.004 83.5234 534.488 83.5781V84H528.828V83.5781C529.289 83.5312 529.617 83.3828 529.812 83.1328C529.945 82.9609 530.012 82.457 530.012 81.6211V70.4883C530.012 69.6602 529.934 69.1445 529.777 68.9414C529.629 68.7383 529.312 68.6055 528.828 68.543V68.1094H533.293ZM550.836 67.7344C551.344 67.7344 551.773 67.9141 552.125 68.2734C552.477 68.625 552.652 69.0508 552.652 69.5508C552.652 70.0508 552.473 70.4766 552.113 70.8281C551.762 71.1797 551.336 71.3555 550.836 71.3555C550.336 71.3555 549.91 71.1797 549.559 70.8281C549.207 70.4766 549.031 70.0508 549.031 69.5508C549.031 69.0508 549.207 68.625 549.559 68.2734C549.91 67.9141 550.336 67.7344 550.836 67.7344ZM552.477 73.043V81.7266C552.477 82.5 552.566 82.9961 552.746 83.2148C552.926 83.4258 553.277 83.5469 553.801 83.5781V84H547.883V83.5781C548.367 83.5625 548.727 83.4219 548.961 83.1562C549.117 82.9766 549.195 82.5 549.195 81.7266V75.3281C549.195 74.5547 549.105 74.0625 548.926 73.8516C548.746 73.6328 548.398 73.5078 547.883 73.4766V73.043H552.477ZM559.355 73.043V74.4609C559.918 73.8516 560.457 73.4102 560.973 73.1367C561.488 72.8555 562.043 72.7148 562.637 72.7148C563.348 72.7148 563.938 72.9141 564.406 73.3125C564.875 73.7031 565.188 74.1914 565.344 74.7773C565.469 75.2227 565.531 76.0781 565.531 77.3438V81.6094C565.531 82.4531 565.605 82.9805 565.754 83.1914C565.91 83.3945 566.23 83.5234 566.715 83.5781V84H561.172V83.5781C561.586 83.5234 561.883 83.3516 562.062 83.0625C562.188 82.8672 562.25 82.3828 562.25 81.6094V76.7344C562.25 75.8359 562.215 75.2695 562.145 75.0352C562.074 74.8008 561.953 74.6211 561.781 74.4961C561.617 74.3633 561.434 74.2969 561.23 74.2969C560.559 74.2969 559.934 74.7773 559.355 75.7383V81.6094C559.355 82.4297 559.43 82.9492 559.578 83.168C559.734 83.3867 560.02 83.5234 560.434 83.5781V84H554.891V83.5781C555.352 83.5312 555.68 83.3828 555.875 83.1328C556.008 82.9609 556.074 82.4531 556.074 81.6094V75.4219C556.074 74.5938 555.996 74.0781 555.84 73.875C555.691 73.6719 555.375 73.5391 554.891 73.4766V73.043H559.355Z" fill="black"/>
</g>
<rect x="683" y="30" width="219" height="93" rx="25" fill="white"/>
<g opacity="0.7">
<path d="M729 79.2V80.8875L729.9 81.9M728 66.5V70.5M722 66.5V70.5M722 75.5H716.517M716.517 75.5C716.506 75.8208 716.5 76.154 716.5 76.5C716.5 81.4094 717.641 83.7517 721 84.6041M716.517 75.5C716.726 69.7928 718.846 68 725 68C730.368 68 732.667 69.364 733.305 73.5M733.5 81C733.5 83.4853 731.485 85.5 729 85.5C726.515 85.5 724.5 83.4853 724.5 81C724.5 78.5147 726.515 76.5 729 76.5C731.485 76.5 733.5 78.5147 733.5 81Z" stroke="black" stroke-opacity="0.8" stroke-width="1.5" stroke-linecap="round" stroke-linejoin="round"/>
<path d="M763.02 67.7461V73.2539H762.562C762.219 71.8164 761.578 70.7148 760.641 69.9492C759.703 69.1836 758.641 68.8008 757.453 68.8008C756.461 68.8008 755.551 69.0859 754.723 69.6562C753.895 70.2266 753.289 70.9727 752.906 71.8945C752.414 73.0742 752.168 74.3867 752.168 75.832C752.168 77.2539 752.348 78.5508 752.707 79.7227C753.066 80.8867 753.629 81.7695 754.395 82.3711C755.16 82.9648 756.152 83.2617 757.371 83.2617C758.371 83.2617 759.285 83.043 760.113 82.6055C760.949 82.168 761.828 81.4141 762.75 80.3438V81.7148C761.859 82.6445 760.93 83.3203 759.961 83.7422C759 84.1562 757.875 84.3633 756.586 84.3633C754.891 84.3633 753.383 84.0234 752.062 83.3438C750.75 82.6641 749.734 81.6875 749.016 80.4141C748.305 79.1406 747.949 77.7852 747.949 76.3477C747.949 74.832 748.344 73.3945 749.133 72.0352C749.93 70.6758 751 69.6211 752.344 68.8711C753.695 68.1211 755.129 67.7461 756.645 67.7461C757.762 67.7461 758.941 67.9883 760.184 68.4727C760.902 68.7539 761.359 68.8945 761.555 68.8945C761.805 68.8945 762.02 68.8047 762.199 68.625C762.387 68.4375 762.508 68.1445 762.562 67.7461H763.02ZM769.629 68.1094V74.4492C770.23 73.8164 770.781 73.3711 771.281 73.1133C771.781 72.8477 772.301 72.7148 772.84 72.7148C773.527 72.7148 774.113 72.9102 774.598 73.3008C775.09 73.6914 775.414 74.1523 775.57 74.6836C775.734 75.207 775.816 76.0938 775.816 77.3438V81.6211C775.816 82.457 775.895 82.9805 776.051 83.1914C776.207 83.3945 776.523 83.5234 777 83.5781V84H771.445V83.5781C771.836 83.5234 772.129 83.3672 772.324 83.1094C772.465 82.9062 772.535 82.4102 772.535 81.6211V76.7344C772.535 75.8281 772.5 75.2617 772.43 75.0352C772.359 74.8008 772.238 74.6211 772.066 74.4961C771.902 74.3633 771.715 74.2969 771.504 74.2969C771.191 74.2969 770.887 74.4062 770.59 74.625C770.293 74.8359 769.973 75.2109 769.629 75.75V81.6211C769.629 82.4023 769.688 82.8906 769.805 83.0859C769.953 83.3516 770.258 83.5156 770.719 83.5781V84H765.164V83.5781C765.625 83.5312 765.953 83.3828 766.148 83.1328C766.281 82.9609 766.348 82.457 766.348 81.6211V70.4883C766.348 69.6602 766.27 69.1445 766.113 68.9414C765.965 68.7383 765.648 68.6055 765.164 68.543V68.1094H769.629ZM787.793 78.1289H781.781C781.852 79.582 782.238 80.7305 782.941 81.5742C783.48 82.2227 784.129 82.5469 784.887 82.5469C785.355 82.5469 785.781 82.418 786.164 82.1602C786.547 81.8945 786.957 81.4219 787.395 80.7422L787.793 81C787.199 82.2109 786.543 83.0703 785.824 83.5781C785.105 84.0781 784.273 84.3281 783.328 84.3281C781.703 84.3281 780.473 83.7031 779.637 82.4531C778.965 81.4453 778.629 80.1953 778.629 78.7031C778.629 76.875 779.121 75.4219 780.105 74.3438C781.098 73.2578 782.258 72.7148 783.586 72.7148C784.695 72.7148 785.656 73.1719 786.469 74.0859C787.289 74.9922 787.73 76.3398 787.793 78.1289ZM784.91 77.3438C784.91 76.0859 784.84 75.2227 784.699 74.7539C784.566 74.2852 784.355 73.9297 784.066 73.6875C783.902 73.5469 783.684 73.4766 783.41 73.4766C783.004 73.4766 782.672 73.6758 782.414 74.0742C781.953 74.7695 781.723 75.7227 781.723 76.9336V77.3438H784.91ZM798.117 81.1758L798.48 81.457C797.965 82.4258 797.32 83.1484 796.547 83.625C795.781 84.0938 794.965 84.3281 794.098 84.3281C792.637 84.3281 791.469 83.7773 790.594 82.6758C789.719 81.5742 789.281 80.25 789.281 78.7031C789.281 77.2109 789.68 75.8984 790.477 74.7656C791.438 73.3984 792.762 72.7148 794.449 72.7148C795.582 72.7148 796.48 73 797.145 73.5703C797.816 74.1406 798.152 74.7773 798.152 75.4805C798.152 75.9258 798.016 76.2812 797.742 76.5469C797.477 76.8125 797.125 76.9453 796.688 76.9453C796.227 76.9453 795.844 76.793 795.539 76.4883C795.242 76.1836 795.059 75.6406 794.988 74.8594C794.941 74.3672 794.828 74.0234 794.648 73.8281C794.469 73.6328 794.258 73.5352 794.016 73.5352C793.641 73.5352 793.32 73.7344 793.055 74.1328C792.648 74.7344 792.445 75.6562 792.445 76.8984C792.445 77.9297 792.609 78.918 792.938 79.8633C793.266 80.8008 793.715 81.5 794.285 81.9609C794.715 82.2969 795.223 82.4648 795.809 82.4648C796.191 82.4648 796.555 82.375 796.898 82.1953C797.242 82.0156 797.648 81.6758 798.117 81.1758ZM804.293 68.1094V78.5625L806.836 76.0664C807.359 75.5586 807.684 75.1914 807.809 74.9648C807.941 74.7383 808.008 74.5195 808.008 74.3086C808.008 74.0977 807.922 73.9219 807.75 73.7812C807.578 73.6406 807.242 73.5391 806.742 73.4766V73.043H811.652V73.4766C811.184 73.5 810.773 73.6133 810.422 73.8164C810.07 74.0117 809.383 74.6094 808.359 75.6094L807.164 76.7812L809.742 80.5547C810.781 82.0859 811.398 82.9453 811.594 83.1328C811.859 83.3984 812.195 83.5469 812.602 83.5781V84H806.941V83.5781C807.191 83.5781 807.371 83.5312 807.48 83.4375C807.598 83.3438 807.656 83.2422 807.656 83.1328C807.656 82.9531 807.492 82.6211 807.164 82.1367L804.996 78.9609L804.293 79.6523V81.6211C804.293 82.457 804.371 82.9805 804.527 83.1914C804.684 83.3945 805.004 83.5234 805.488 83.5781V84H799.828V83.5781C800.289 83.5312 800.617 83.3828 800.812 83.1328C800.945 82.9609 801.012 82.457 801.012 81.6211V70.4883C801.012 69.6602 800.934 69.1445 800.777 68.9414C800.629 68.7383 800.312 68.6055 799.828 68.543V68.1094H804.293ZM824.367 72.7148C825.32 72.7148 826.207 72.9609 827.027 73.4531C827.848 73.9453 828.469 74.6445 828.891 75.5508C829.32 76.457 829.535 77.4492 829.535 78.5273C829.535 80.082 829.141 81.3828 828.352 82.4297C827.398 83.6953 826.082 84.3281 824.402 84.3281C822.754 84.3281 821.484 83.75 820.594 82.5938C819.703 81.4375 819.258 80.0977 819.258 78.5742C819.258 77.0039 819.711 75.6367 820.617 74.4727C821.531 73.3008 822.781 72.7148 824.367 72.7148ZM824.414 73.5469C824.016 73.5469 823.672 73.6992 823.383 74.0039C823.102 74.3008 822.914 74.8945 822.82 75.7852C822.734 76.668 822.691 77.8984 822.691 79.4766C822.691 80.3125 822.746 81.0938 822.855 81.8203C822.941 82.375 823.125 82.7969 823.406 83.0859C823.688 83.375 824.008 83.5195 824.367 83.5195C824.719 83.5195 825.012 83.4219 825.246 83.2266C825.551 82.9609 825.754 82.5898 825.855 82.1133C826.012 81.3711 826.09 79.8711 826.09 77.6133C826.09 76.2852 826.016 75.375 825.867 74.8828C825.719 74.3828 825.5 74.0195 825.211 73.793C825.008 73.6289 824.742 73.5469 824.414 73.5469ZM841.781 73.043V81.6211C841.781 82.457 841.859 82.9805 842.016 83.1914C842.172 83.3945 842.488 83.5234 842.965 83.5781V84H838.5V82.5352C837.977 83.1602 837.453 83.6172 836.93 83.9062C836.406 84.1875 835.82 84.3281 835.172 84.3281C834.555 84.3281 834.004 84.1406 833.52 83.7656C833.043 83.3828 832.723 82.9375 832.559 82.4297C832.395 81.9219 832.312 81.0352 832.312 79.7695V75.4219C832.312 74.5938 832.234 74.0781 832.078 73.875C831.93 73.6719 831.613 73.5391 831.129 73.4766V73.043H835.594V80.5312C835.594 81.3125 835.629 81.8164 835.699 82.043C835.777 82.2695 835.895 82.4414 836.051 82.5586C836.215 82.6758 836.402 82.7344 836.613 82.7344C836.895 82.7344 837.148 82.6602 837.375 82.5117C837.688 82.3086 838.062 81.8984 838.5 81.2812V75.4219C838.5 74.5938 838.422 74.0781 838.266 73.875C838.117 73.6719 837.801 73.5391 837.316 73.4766V73.043H841.781ZM848.906 69.0352V73.043H851.508V74.2031H848.906V80.9648C848.906 81.5977 848.934 82.0078 848.988 82.1953C849.051 82.375 849.156 82.5234 849.305 82.6406C849.453 82.75 849.59 82.8047 849.715 82.8047C850.223 82.8047 850.703 82.418 851.156 81.6445L851.508 81.9023C850.875 83.4023 849.848 84.1523 848.426 84.1523C847.73 84.1523 847.141 83.9609 846.656 83.5781C846.18 83.1875 845.875 82.7539 845.742 82.2773C845.664 82.0117 845.625 81.293 845.625 80.1211V74.2031H844.195V73.793C845.18 73.0977 846.016 72.3672 846.703 71.6016C847.398 70.8359 848.004 69.9805 848.52 69.0352H848.906Z" fill="black"/>
</g>
<rect x="975" y="32" width="232.163" height="88" rx="12" fill="#F99001"/>
<path d="M1024.03 64.3281L1024.2 71.3906H1023.56C1023.26 69.6198 1022.52 68.1979 1021.33 67.125C1020.15 66.0417 1018.88 65.5 1017.5 65.5C1016.44 65.5 1015.59 65.7865 1014.97 66.3594C1014.35 66.9219 1014.05 67.5729 1014.05 68.3125C1014.05 68.7812 1014.16 69.1979 1014.38 69.5625C1014.68 70.0521 1015.16 70.5365 1015.83 71.0156C1016.32 71.3594 1017.45 71.9688 1019.22 72.8438C1021.7 74.0625 1023.37 75.2135 1024.23 76.2969C1025.09 77.3802 1025.52 78.6198 1025.52 80.0156C1025.52 81.7865 1024.82 83.3125 1023.44 84.5938C1022.06 85.8646 1020.31 86.5 1018.19 86.5C1017.52 86.5 1016.89 86.4323 1016.3 86.2969C1015.7 86.1615 1014.96 85.9062 1014.06 85.5312C1013.56 85.3229 1013.15 85.2188 1012.83 85.2188C1012.56 85.2188 1012.27 85.3229 1011.97 85.5312C1011.67 85.7396 1011.42 86.0573 1011.23 86.4844H1010.66V78.4844H1011.23C1011.69 80.7344 1012.57 82.4531 1013.88 83.6406C1015.19 84.8177 1016.6 85.4062 1018.11 85.4062C1019.28 85.4062 1020.2 85.0885 1020.89 84.4531C1021.59 83.8177 1021.94 83.0781 1021.94 82.2344C1021.94 81.7344 1021.8 81.25 1021.53 80.7812C1021.27 80.3125 1020.87 79.8698 1020.33 79.4531C1019.79 79.026 1018.83 78.474 1017.45 77.7969C1015.53 76.849 1014.14 76.0417 1013.3 75.375C1012.45 74.7083 1011.8 73.9635 1011.34 73.1406C1010.9 72.3177 1010.67 71.4115 1010.67 70.4219C1010.67 68.7344 1011.29 67.2969 1012.53 66.1094C1013.77 64.9219 1015.33 64.3281 1017.22 64.3281C1017.91 64.3281 1018.57 64.4115 1019.22 64.5781C1019.71 64.7031 1020.3 64.9375 1021 65.2812C1021.71 65.6146 1022.2 65.7812 1022.48 65.7812C1022.76 65.7812 1022.97 65.6979 1023.12 65.5312C1023.28 65.3646 1023.43 64.9635 1023.56 64.3281H1024.03ZM1040.27 78.1719H1032.25C1032.34 80.1094 1032.86 81.6406 1033.8 82.7656C1034.52 83.6302 1035.38 84.0625 1036.39 84.0625C1037.02 84.0625 1037.58 83.8906 1038.09 83.5469C1038.6 83.1927 1039.15 82.5625 1039.73 81.6562L1040.27 82C1039.47 83.6146 1038.6 84.7604 1037.64 85.4375C1036.68 86.1042 1035.57 86.4375 1034.31 86.4375C1032.15 86.4375 1030.51 85.6042 1029.39 83.9375C1028.49 82.5938 1028.05 80.9271 1028.05 78.9375C1028.05 76.5 1028.7 74.5625 1030.02 73.125C1031.34 71.6771 1032.89 70.9531 1034.66 70.9531C1036.14 70.9531 1037.42 71.5625 1038.5 72.7812C1039.59 73.9896 1040.18 75.7865 1040.27 78.1719ZM1036.42 77.125C1036.42 75.4479 1036.33 74.2969 1036.14 73.6719C1035.96 73.0469 1035.68 72.5729 1035.3 72.25C1035.08 72.0625 1034.79 71.9688 1034.42 71.9688C1033.88 71.9688 1033.44 72.2344 1033.09 72.7656C1032.48 73.6927 1032.17 74.9635 1032.17 76.5781V77.125H1036.42ZM1050.17 83.8438C1048.39 85.4167 1046.79 86.2031 1045.38 86.2031C1044.54 86.2031 1043.85 85.9323 1043.3 85.3906C1042.74 84.8385 1042.47 84.151 1042.47 83.3281C1042.47 82.2135 1042.95 81.2135 1043.91 80.3281C1044.86 79.4323 1046.95 78.2448 1050.17 76.7656V75.2969C1050.17 74.1927 1050.11 73.5 1049.98 73.2188C1049.87 72.9271 1049.65 72.6771 1049.31 72.4688C1048.98 72.25 1048.6 72.1406 1048.19 72.1406C1047.51 72.1406 1046.95 72.2917 1046.52 72.5938C1046.24 72.7812 1046.11 73 1046.11 73.25C1046.11 73.4688 1046.26 73.7396 1046.55 74.0625C1046.94 74.5104 1047.14 74.9427 1047.14 75.3594C1047.14 75.8698 1046.95 76.3073 1046.56 76.6719C1046.19 77.026 1045.69 77.2031 1045.08 77.2031C1044.42 77.2031 1043.87 77.0052 1043.42 76.6094C1042.98 76.2135 1042.77 75.75 1042.77 75.2188C1042.77 74.4688 1043.06 73.7552 1043.66 73.0781C1044.25 72.3906 1045.08 71.8646 1046.14 71.5C1047.2 71.1354 1048.31 70.9531 1049.45 70.9531C1050.84 70.9531 1051.93 71.25 1052.73 71.8438C1053.55 72.4271 1054.07 73.0625 1054.31 73.75C1054.46 74.1875 1054.53 75.1927 1054.53 76.7656V82.4375C1054.53 83.1042 1054.56 83.526 1054.61 83.7031C1054.66 83.8698 1054.74 83.9948 1054.84 84.0781C1054.95 84.1615 1055.07 84.2031 1055.2 84.2031C1055.47 84.2031 1055.75 84.0104 1056.03 83.625L1056.5 84C1055.98 84.7708 1055.44 85.3333 1054.88 85.6875C1054.32 86.0312 1053.69 86.2031 1052.98 86.2031C1052.15 86.2031 1051.5 86.0104 1051.03 85.625C1050.56 85.2292 1050.28 84.6354 1050.17 83.8438ZM1050.17 82.7031V77.8125C1048.91 78.5521 1047.97 79.3438 1047.36 80.1875C1046.95 80.75 1046.75 81.3177 1046.75 81.8906C1046.75 82.3698 1046.92 82.7917 1047.27 83.1562C1047.53 83.4375 1047.89 83.5781 1048.36 83.5781C1048.88 83.5781 1049.48 83.2865 1050.17 82.7031ZM1064.17 71.3906V74.7031C1065.14 73.1927 1065.99 72.1927 1066.72 71.7031C1067.45 71.2031 1068.15 70.9531 1068.83 70.9531C1069.41 70.9531 1069.88 71.1354 1070.22 71.5C1070.57 71.8542 1070.75 72.3594 1070.75 73.0156C1070.75 73.7135 1070.58 74.2552 1070.23 74.6406C1069.9 75.026 1069.49 75.2188 1069.02 75.2188C1068.46 75.2188 1067.98 75.0417 1067.58 74.6875C1067.17 74.3333 1066.93 74.1354 1066.86 74.0938C1066.76 74.0312 1066.64 74 1066.5 74C1066.2 74 1065.91 74.1146 1065.64 74.3438C1065.21 74.6979 1064.89 75.2031 1064.67 75.8594C1064.34 76.8698 1064.17 77.9844 1064.17 79.2031V82.5625L1064.19 83.4375C1064.19 84.0312 1064.22 84.4115 1064.3 84.5781C1064.42 84.8594 1064.6 85.0677 1064.84 85.2031C1065.09 85.3281 1065.51 85.4062 1066.09 85.4375V86H1058.2V85.4375C1058.84 85.3854 1059.27 85.2135 1059.48 84.9219C1059.71 84.6198 1059.83 83.8333 1059.83 82.5625V74.4844C1059.83 73.651 1059.79 73.1198 1059.7 72.8906C1059.6 72.599 1059.45 72.3854 1059.25 72.25C1059.05 72.1146 1058.7 72.0208 1058.2 71.9688V71.3906H1064.17ZM1083.66 82.2344L1084.14 82.6094C1083.45 83.901 1082.59 84.8646 1081.56 85.5C1080.54 86.125 1079.45 86.4375 1078.3 86.4375C1076.35 86.4375 1074.79 85.7031 1073.62 84.2344C1072.46 82.7656 1071.88 81 1071.88 78.9375C1071.88 76.9479 1072.41 75.1979 1073.47 73.6875C1074.75 71.8646 1076.52 70.9531 1078.77 70.9531C1080.28 70.9531 1081.47 71.3333 1082.36 72.0938C1083.26 72.8542 1083.7 73.7031 1083.7 74.6406C1083.7 75.2344 1083.52 75.7083 1083.16 76.0625C1082.8 76.4167 1082.33 76.5938 1081.75 76.5938C1081.14 76.5938 1080.62 76.3906 1080.22 75.9844C1079.82 75.5781 1079.58 74.8542 1079.48 73.8125C1079.42 73.1562 1079.27 72.6979 1079.03 72.4375C1078.79 72.1771 1078.51 72.0469 1078.19 72.0469C1077.69 72.0469 1077.26 72.3125 1076.91 72.8438C1076.36 73.6458 1076.09 74.875 1076.09 76.5312C1076.09 77.9062 1076.31 79.224 1076.75 80.4844C1077.19 81.7344 1077.79 82.6667 1078.55 83.2812C1079.12 83.7292 1079.8 83.9531 1080.58 83.9531C1081.09 83.9531 1081.57 83.8333 1082.03 83.5938C1082.49 83.3542 1083.03 82.901 1083.66 82.2344ZM1091.92 64.8125V73.2656C1092.72 72.4219 1093.46 71.8281 1094.12 71.4844C1094.79 71.1302 1095.48 70.9531 1096.2 70.9531C1097.12 70.9531 1097.9 71.2135 1098.55 71.7344C1099.2 72.2552 1099.64 72.8698 1099.84 73.5781C1100.06 74.276 1100.17 75.4583 1100.17 77.125V82.8281C1100.17 83.9427 1100.28 84.6406 1100.48 84.9219C1100.69 85.1927 1101.11 85.3646 1101.75 85.4375V86H1094.34V85.4375C1094.86 85.3646 1095.26 85.1562 1095.52 84.8125C1095.7 84.5417 1095.8 83.8802 1095.8 82.8281V76.3125C1095.8 75.1042 1095.75 74.349 1095.66 74.0469C1095.56 73.7344 1095.4 73.4948 1095.17 73.3281C1094.95 73.151 1094.7 73.0625 1094.42 73.0625C1094.01 73.0625 1093.6 73.2083 1093.2 73.5C1092.81 73.7812 1092.38 74.2812 1091.92 75V82.8281C1091.92 83.8698 1092 84.5208 1092.16 84.7812C1092.35 85.1354 1092.76 85.3542 1093.38 85.4375V86H1085.97V85.4375C1086.58 85.375 1087.02 85.1771 1087.28 84.8438C1087.46 84.6146 1087.55 83.9427 1087.55 82.8281V67.9844C1087.55 66.8802 1087.44 66.1927 1087.23 65.9219C1087.04 65.651 1086.61 65.474 1085.97 65.3906V64.8125H1091.92ZM1118.66 64.8125L1129.11 77.9531V68.8438C1129.11 67.5729 1128.93 66.7135 1128.56 66.2656C1128.06 65.6615 1127.22 65.3698 1126.05 65.3906V64.8125H1133.05V65.3906C1132.15 65.5052 1131.55 65.6562 1131.23 65.8438C1130.93 66.0208 1130.69 66.3177 1130.52 66.7344C1130.35 67.1406 1130.27 67.8438 1130.27 68.8438V86.4844H1129.73L1115.41 68.8438V82.3125C1115.41 83.5312 1115.68 84.3542 1116.23 84.7812C1116.8 85.2083 1117.44 85.4219 1118.16 85.4219H1118.66V86H1111.14V85.4219C1112.31 85.4115 1113.12 85.1719 1113.58 84.7031C1114.04 84.2344 1114.27 83.4375 1114.27 82.3125V67.3594L1113.81 66.7969C1113.36 66.2344 1112.97 65.8646 1112.62 65.6875C1112.28 65.5104 1111.79 65.4115 1111.14 65.3906V64.8125H1118.66ZM1141.78 70.9531C1143.05 70.9531 1144.23 71.2812 1145.33 71.9375C1146.42 72.5938 1147.25 73.526 1147.81 74.7344C1148.39 75.9427 1148.67 77.2656 1148.67 78.7031C1148.67 80.776 1148.15 82.5104 1147.09 83.9062C1145.82 85.5938 1144.07 86.4375 1141.83 86.4375C1139.63 86.4375 1137.94 85.6667 1136.75 84.125C1135.56 82.5833 1134.97 80.7969 1134.97 78.7656C1134.97 76.6719 1135.57 74.849 1136.78 73.2969C1138 71.7344 1139.67 70.9531 1141.78 70.9531ZM1141.84 72.0625C1141.31 72.0625 1140.85 72.2656 1140.47 72.6719C1140.09 73.0677 1139.84 73.8594 1139.72 75.0469C1139.6 76.224 1139.55 77.8646 1139.55 79.9688C1139.55 81.0833 1139.62 82.125 1139.77 83.0938C1139.88 83.8333 1140.12 84.3958 1140.5 84.7812C1140.88 85.1667 1141.3 85.3594 1141.78 85.3594C1142.25 85.3594 1142.64 85.2292 1142.95 84.9688C1143.36 84.6146 1143.63 84.1198 1143.77 83.4844C1143.97 82.4948 1144.08 80.4948 1144.08 77.4844C1144.08 75.7135 1143.98 74.5 1143.78 73.8438C1143.58 73.1771 1143.29 72.6927 1142.91 72.3906C1142.64 72.1719 1142.28 72.0625 1141.84 72.0625ZM1165.38 86.4375L1161.38 75.7188L1157.45 86.4375H1156.64L1152.75 75.8438C1152.17 74.2292 1151.67 73.1771 1151.27 72.6875C1151.01 72.3542 1150.61 72.1146 1150.08 71.9688V71.3906H1157.45V71.9688C1156.95 71.9688 1156.61 72.0417 1156.42 72.1875C1156.23 72.3333 1156.14 72.5 1156.14 72.6875C1156.14 72.8646 1156.31 73.3958 1156.64 74.2812L1158.78 79.9844L1160.84 74.2812L1160.69 73.9062C1160.38 73.125 1160.1 72.6302 1159.86 72.4219C1159.63 72.2031 1159.27 72.0521 1158.78 71.9688V71.3906H1166.27V71.9688C1165.68 72 1165.31 72.0833 1165.16 72.2188C1165 72.3438 1164.92 72.526 1164.92 72.7656C1164.92 72.9948 1165.07 73.5 1165.38 74.2812L1167.44 79.9844L1169.31 74.7344C1169.58 73.9844 1169.72 73.474 1169.72 73.2031C1169.72 72.7969 1169.62 72.5 1169.42 72.3125C1169.22 72.125 1168.84 72.0104 1168.27 71.9688V71.3906H1172.59V71.9688C1172.11 72.0312 1171.73 72.2031 1171.45 72.4844C1171.17 72.7552 1170.81 73.5365 1170.36 74.8281L1166.27 86.4375H1165.38Z" fill="white"/>
</svg>
